<?xml version="1.0" encoding="UTF-8" standalone="no"?>
<!DOCTYPE svg PUBLIC "-//W3C//DTD SVG 1.1//EN" "http://www.w3.org/Graphics/SVG/1.1/DTD/svg11.dtd">
<svg width="100%" height="100%" viewBox="0 0 396 157" version="1.1" xmlns="http://www.w3.org/2000/svg" xmlns:xlink="http://www.w3.org/1999/xlink" xml:space="preserve" xmlns:serif="http://www.serif.com/" style="fill-rule:evenodd;clip-rule:evenodd;stroke-linejoin:round;stroke-miterlimit:1.5;">
    <g transform="matrix(1,0,0,1,-10,-1555)">
        <g id="Banner" transform="matrix(0.396,0,0,0.314,10,1555)">
            <rect x="0" y="0" width="1000" height="500" style="fill:none;"/>
            <clipPath id="_clip1">
                <rect x="0" y="0" width="1000" height="500"/>
            </clipPath>
            <g clip-path="url(#_clip1)">
                <g transform="matrix(1.93501,0,0,6.34395,-1102.6,-109.873)">
                    <g transform="matrix(0.680253,0,0,0.392588,542.694,-70.3264)">
                        <g transform="matrix(1.06221,0,0,1.27465,-91.608,18.6197)">
                            <g>
                                <g transform="matrix(1.80611,-0,-0,1.00319,123.782,160.539)">
                                    <path d="M14.794,25.497C8.24,25.48 2.906,30.788 2.889,37.342C2.872,43.896 8.18,49.23 14.734,49.247C21.288,49.263 26.622,43.956 26.639,37.402C26.656,30.848 21.348,25.513 14.794,25.497Z" style="fill:white;"/>
                                    <path d="M372.28,26.403L396,38.338L372.22,50.153L372.28,26.403Z" style="fill:white;"/>
                                    <path d="M21.889,37.39C88.423,37.558 310.466,38.122 377,38.29" style="fill:none;stroke:white;stroke-width:3.96px;"/>
                                </g>
                            </g>
                        </g>
                        <g transform="matrix(1.06103,0,0,1.27324,-93.3316,123.885)">
                            <g id="Arrow">
                                <g transform="matrix(1.8081,-0,-0,1.0043,125.543,78.0417)">
                                    <path d="M13.817,107.6C7.263,107.583 1.928,112.891 1.912,119.445C1.895,125.999 7.203,131.333 13.757,131.35C20.311,131.366 25.645,126.059 25.662,119.505C25.678,112.951 20.371,107.616 13.817,107.6Z" style="fill:white;"/>
                                    <path d="M370.868,108.505L394.588,120.44L370.808,132.255L370.868,108.505Z" style="fill:white;"/>
                                    <path d="M20.912,119.493C87.391,119.661 309.109,120.224 375.588,120.392" style="fill:none;stroke:white;stroke-width:3.96px;"/>
                                </g>
                            </g>
                        </g>
                    </g>
                    <g id="Direct-Feedback" serif:id="Direct Feedback" transform="matrix(0.933353,0,0,0.392588,371.985,-70.3264)">
                        <g transform="matrix(0.833333,0,0,1,-1.18424e-14,41)">
                            <g id="Feedback-Direct-Arrow" serif:id="Feedback Direct Arrow">
                                <g transform="matrix(1.67787,-0,-0,1.27871,254.351,182.251)">
                                    <path d="M43.697,139.261L35.55,129.043L48.613,128.656L43.697,139.261Z" style="fill:white;"/>
                                    <path d="M345.719,129.043C292.207,157.071 115.063,162.264 44.034,132.976" style="fill:none;stroke:white;stroke-width:2.46px;stroke-linecap:round;"/>
                                </g>
                            </g>
                        </g>
                        <g transform="matrix(0.833333,0,0,-1,-3.14094e-09,606.26)">
                            <g id="Feedback-Direct-Arrow1" serif:id="Feedback Direct Arrow">
                                <g transform="matrix(1.67787,0,0,-1.27871,254.351,383.009)">
                                    <path d="M48.613,28.344L35.55,27.957L43.697,17.739L48.613,28.344Z" style="fill:white;"/>
                                    <path d="M345.719,27.957C292.207,-0.071 115.063,-5.264 44.034,24.024" style="fill:none;stroke:white;stroke-width:2.46px;stroke-linecap:round;"/>
                                </g>
                            </g>
                        </g>
                    </g>
                    <g id="Cross-Feedback" serif:id="Cross Feedback" transform="matrix(0.933353,0,0,0.392588,371.985,-74.52)">
                        <g transform="matrix(0.833333,0,0,1,0,0)">
                            <g id="Cross-Feedback-Arrow" serif:id="Cross Feedback Arrow">
                                <g id="Cross-Feedback-Arrow1" serif:id="Cross Feedback Arrow" transform="matrix(1.67787,-0,-0,1.27871,254.351,233.933)">
                                    <path d="M44.325,56.092L35.55,46.407L48.563,45.199L44.325,56.092Z" style="fill:white;"/>
                                    <path d="M345.719,111.091C256.523,74.596 136.104,83.756 44.265,49.798" style="fill:none;stroke:white;stroke-width:2.46px;"/>
                                </g>
                            </g>
                        </g>
                        <g transform="matrix(0.833333,0,0,-1,3.14088e-09,668.624)">
                            <g id="Cross-Feedback-Arrow2" serif:id="Cross Feedback Arrow">
                                <g id="Cross-Feedback-Arrow3" serif:id="Cross Feedback Arrow" transform="matrix(1.67787,0,0,-1.27871,254.351,434.691)">
                                    <path d="M48.563,111.801L35.55,110.593L44.325,100.908L48.563,111.801Z" style="fill:white;"/>
                                    <path d="M345.719,45.909C256.523,82.404 136.104,73.244 44.265,107.202" style="fill:none;stroke:white;stroke-width:2.46px;"/>
                                </g>
                            </g>
                        </g>
                    </g>
                    <g transform="matrix(1.58083,0,0,0.502008,428.406,-298.639)">
                        <path d="M296,739.917C296,734.996 292.702,731 288.639,731L211.361,731C207.298,731 204,734.996 204,739.917L204,757.751C204,762.672 207.298,766.668 211.361,766.668L288.639,766.668C292.702,766.668 296,762.672 296,757.751L296,739.917Z" style="fill:rgb(133,69,67);"/>
                        <path d="M296,739.917C296,734.996 292.702,731 288.639,731L211.361,731C207.298,731 204,734.996 204,739.917L204,757.751C204,762.672 207.298,766.668 211.361,766.668L288.639,766.668C292.702,766.668 296,762.672 296,757.751L296,739.917ZM294.09,739.917L294.09,757.751C294.09,761.395 291.647,764.354 288.639,764.354C288.639,764.354 211.361,764.354 211.361,764.354C208.353,764.354 205.91,761.395 205.91,757.751C205.91,757.751 205.91,739.917 205.91,739.917C205.91,736.273 208.353,733.314 211.361,733.314L288.639,733.314C291.647,733.314 294.09,736.273 294.09,739.917Z" style="fill:white;fill-opacity:0.48;"/>
                    </g>
                    <g transform="matrix(1.58083,0,0,0.502008,428.406,-339.733)">
                        <path d="M296,739.917C296,734.996 292.702,731 288.639,731L211.361,731C207.298,731 204,734.996 204,739.917L204,757.751C204,762.672 207.298,766.668 211.361,766.668L288.639,766.668C292.702,766.668 296,762.672 296,757.751L296,739.917Z" style="fill:rgb(133,69,67);"/>
                        <path d="M296,739.917C296,734.996 292.702,731 288.639,731L211.361,731C207.298,731 204,734.996 204,739.917L204,757.751C204,762.672 207.298,766.668 211.361,766.668L288.639,766.668C292.702,766.668 296,762.672 296,757.751L296,739.917ZM294.09,739.917L294.09,757.751C294.09,761.395 291.647,764.354 288.639,764.354C288.639,764.354 211.361,764.354 211.361,764.354C208.353,764.354 205.91,761.395 205.91,757.751C205.91,757.751 205.91,739.917 205.91,739.917C205.91,736.273 208.353,733.314 211.361,733.314C211.361,733.314 288.639,733.314 288.639,733.314C291.647,733.314 294.09,736.273 294.09,739.917Z" style="fill:white;fill-opacity:0.48;"/>
                    </g>
                    <g transform="matrix(1.30504,0,0,0.502008,92.034,1.27669e-13)">
                        <text x="523.757px" y="81.535px" style="font-family:'Avenir-Book', 'Avenir';font-size:25px;fill:rgb(207,205,205);">100ms</text>
                    </g>
                    <g transform="matrix(1.30504,0,0,0.502008,92.034,41.0943)">
                        <text x="523.757px" y="81.535px" style="font-family:'Avenir-Book', 'Avenir';font-size:25px;fill:rgb(207,205,205);">150ms</text>
                    </g>
                </g>
            </g>
        </g>
    </g>
</svg>
