<?xml version="1.0" encoding="UTF-8" standalone="no"?><!DOCTYPE svg PUBLIC "-//W3C//DTD SVG 1.1//EN" "http://www.w3.org/Graphics/SVG/1.1/DTD/svg11.dtd"><svg width="100%" height="100%" viewBox="0 0 2048 512" version="1.1" xmlns="http://www.w3.org/2000/svg" xmlns:xlink="http://www.w3.org/1999/xlink" xml:space="preserve" xmlns:serif="http://www.serif.com/" style="fill-rule:evenodd;clip-rule:evenodd;stroke-linejoin:round;stroke-miterlimit:2;"><rect id="Background-V2" serif:id="Background V2" x="0" y="0" width="2048" height="512" style="fill:none;"/><clipPath id="_clip1"><rect x="0" y="0" width="2048" height="512"/></clipPath><g clip-path="url(#_clip1)"><g><path d="M0,384c300.947,62.474 221.174,-60.373 512,0l0,128l-512,0l0,-128Z" style="fill:#fff;"/></g><g><path d="M512,384c300.947,62.474 221.174,-60.373 512,0l0,128l-512,0l0,-128Z" style="fill:#fff;"/></g><g><path d="M1024,384c300.947,62.474 221.174,-60.373 512,0l0,128l-512,0l0,-128Z" style="fill:#fff;"/></g><g><path d="M1536,384c300.947,62.474 221.174,-60.373 512,0l0,128l-512,0l0,-128Z" style="fill:#fff;"/></g></g></svg>