<?xml version="1.0" encoding="UTF-8" standalone="no"?><!DOCTYPE svg PUBLIC "-//W3C//DTD SVG 1.1//EN" "http://www.w3.org/Graphics/SVG/1.1/DTD/svg11.dtd"><svg width="100%" height="100%" viewBox="0 0 2048 512" version="1.1" xmlns="http://www.w3.org/2000/svg" xmlns:xlink="http://www.w3.org/1999/xlink" xml:space="preserve" xmlns:serif="http://www.serif.com/" style="fill-rule:evenodd;clip-rule:evenodd;stroke-linejoin:round;stroke-miterlimit:2;"><rect id="Background" x="0" y="0" width="2048" height="512" style="fill:none;"/><clipPath id="_clip1"><rect x="0" y="0" width="2048" height="512"/></clipPath><g clip-path="url(#_clip1)"><g><path d="M0,256c132.032,-55.368 209.902,-61.098 256,0c49.896,66.132 182.913,38.543 256,0l0,-256l-512,0l0,256Z" style="fill:#00d2ff;"/></g><g><path d="M1024,256c132.032,-55.368 209.902,-61.098 256,0c49.896,66.132 182.913,38.543 256,0l0,-256l-512,0l0,256Z" style="fill:#00d2ff;"/></g><g><path d="M512,256c132.032,-55.368 209.902,-61.098 256,0c49.896,66.132 182.913,38.543 256,0l0,-256l-512,0l0,256Z" style="fill:#00d2ff;"/></g><g><path d="M1536,256c132.032,-55.368 209.902,-61.098 256,0c49.896,66.132 182.913,38.543 256,0l0,-256l-512,0l0,256Z" style="fill:#00d2ff;"/></g></g></svg>