<?xml version="1.0" encoding="UTF-8" standalone="no"?>
<!DOCTYPE svg PUBLIC "-//W3C//DTD SVG 1.1//EN" "http://www.w3.org/Graphics/SVG/1.1/DTD/svg11.dtd">
<svg width="100%" height="100%" viewBox="0 0 512 512" version="1.1" xmlns="http://www.w3.org/2000/svg" xmlns:xlink="http://www.w3.org/1999/xlink" xml:space="preserve" xmlns:serif="http://www.serif.com/" style="fill-rule:evenodd;clip-rule:evenodd;stroke-linejoin:round;stroke-miterlimit:2;">
    <g transform="matrix(1,0,0,1,-642.277,-592.779)">
        <g id="Thick" transform="matrix(0.850817,0,0,0.925976,642.277,-27.4331)">
            <rect x="0" y="669.793" width="601.775" height="552.93" style="fill:none;"/>
            <clipPath id="_clip1">
                <rect x="0" y="669.793" width="601.775" height="552.93"/>
            </clipPath>
            <g clip-path="url(#_clip1)">
                <g id="Thick1" serif:id="Thick" transform="matrix(1.12938,0,0,1.12938,-38.9296,-122.429)">
                    <g id="Rect-3" serif:id="Rect 3" transform="matrix(0.863003,0,0,0.792956,-25.1058,708.307)">
                        <g transform="matrix(0.890351,-0.514044,-5.03415e-17,1.01856,211.242,184.442)">
                            <rect x="203.342" y="228.385" width="219.944" height="219.944" style="fill:rgb(87,86,255);"/>
                        </g>
                        <g transform="matrix(0.890351,0.514044,-0.882095,0.509278,395.383,-161.097)">
                            <rect x="203.342" y="228.385" width="219.944" height="219.944" style="fill:rgb(66,255,64);"/>
                        </g>
                        <g transform="matrix(0.890351,0.514044,-1.69265e-16,1.01856,-14.6791,-137.673)">
                            <rect x="203.342" y="228.385" width="219.944" height="219.944" style="fill:rgb(255,86,86);"/>
                        </g>
                    </g>
                    <g transform="matrix(1.85617,0,0,1.70551,-173.254,509.649)">
                        <circle cx="255.441" cy="256" r="143.531" style="fill:url(#_Radial2);"/>
                    </g>
                    <g id="Rect-31" serif:id="Rect 3" transform="matrix(0.863003,0,0,0.792956,-25.1058,708.307)">
                        <g transform="matrix(0.890351,-0.514044,-5.03415e-17,1.01856,211.242,184.442)">
                            <path d="M423.286,228.385L203.342,228.385L203.342,448.329L423.286,448.329L423.286,228.385ZM413.805,237.955L413.805,438.759C413.805,438.759 212.823,438.759 212.823,438.759C212.823,394.993 212.823,264.594 212.823,237.955L413.805,237.955Z"/>
                        </g>
                        <g transform="matrix(0.890351,0.514044,-0.882095,0.509278,395.383,-161.097)">
                            <path d="M423.286,228.385L203.342,228.385L203.342,448.329L423.286,448.329L423.286,228.385ZM413.805,237.955L413.805,438.759C413.805,438.759 212.823,438.759 212.823,438.759C212.823,438.759 212.823,237.955 212.823,237.955L413.805,237.955Z"/>
                        </g>
                        <g transform="matrix(0.890351,0.514044,-1.69265e-16,1.01856,-14.6791,-137.673)">
                            <path d="M423.286,228.385L203.342,228.385L203.342,448.329L423.286,448.329L423.286,228.385ZM413.805,237.955L413.805,438.759C413.805,438.759 212.823,438.759 212.823,438.759C212.823,438.759 212.823,286.088 212.823,237.955L413.805,237.955Z"/>
                        </g>
                    </g>
                </g>
            </g>
        </g>
    </g>
    <defs>
        <radialGradient id="_Radial2" cx="0" cy="0" r="1" gradientUnits="userSpaceOnUse" gradientTransform="matrix(143.531,0,0,143.531,255.441,256)"><stop offset="0" style="stop-color:white;stop-opacity:1"/><stop offset="0.09" style="stop-color:white;stop-opacity:0.96"/><stop offset="0.19" style="stop-color:white;stop-opacity:0.86"/><stop offset="0.62" style="stop-color:white;stop-opacity:0.24"/><stop offset="1" style="stop-color:white;stop-opacity:0"/></radialGradient>
    </defs>
</svg>
