<?xml version="1.0" encoding="UTF-8" standalone="no"?>
<!DOCTYPE svg PUBLIC "-//W3C//DTD SVG 1.1//EN" "http://www.w3.org/Graphics/SVG/1.1/DTD/svg11.dtd">
<svg width="100%" height="100%" viewBox="0 0 2550 3300" version="1.1" xmlns="http://www.w3.org/2000/svg" xmlns:xlink="http://www.w3.org/1999/xlink" xml:space="preserve" xmlns:serif="http://www.serif.com/" style="fill-rule:evenodd;clip-rule:evenodd;stroke-linejoin:round;stroke-miterlimit:2;">
    <g transform="matrix(1,0,0,1,-2745.29,-3580)">
        <g transform="matrix(0.97032,0,0,1,10.9282,3580)">
            <rect id="Disney-Imagineering" serif:id="Disney Imagineering" x="2818" y="0" width="2628" height="3300" style="fill:none;"/>
            <clipPath id="_clip1">
                <rect id="Disney-Imagineering1" serif:id="Disney Imagineering" x="2818" y="0" width="2628" height="3300"/>
            </clipPath>
            <g clip-path="url(#_clip1)">
                <g id="BG" transform="matrix(1.03059,0,0,1,2818,-9.18885e-13)">
                    <rect id="BG1" serif:id="BG" x="0" y="0" width="2550" height="3300" style="fill:white;"/>
                    <g id="Outline" transform="matrix(1,0,0,1.00062,0,-0.01853)">
                        <rect x="30" y="30" width="2490" height="3238" style="fill:rgb(56,61,73);fill-opacity:0;"/>
                        <path d="M2526.25,3274.25L23.75,3274.25L23.75,23.754L2526.25,23.754L2526.25,3274.25ZM2520,30L30,30L30,3268L2520,3268L2520,30Z" style="fill-opacity:0.07;"/>
                    </g>
                </g>
                <g id="Body" transform="matrix(1.03059,0,0,1,2818,-9.18885e-13)">
                    <g id="Education" transform="matrix(1,0,0,1,9.09495e-13,1043.96)">
                        <g transform="matrix(1,0,0,1,-1736.5,1376)">
                            <g transform="matrix(66.6667,0,0,66.6667,2146.23,538.721)">
                            </g>
                            <text x="1824px" y="538.721px" style="font-family:'Arial-BoldMT', 'Arial', sans-serif;font-weight:700;font-size:66.667px;">Education</text>
                        </g>
                        <g transform="matrix(2.45736,0,0,0.315789,-4394.73,1767.29)">
                            <g id="Divider">
                                <rect id="Divider1" serif:id="Divider" x="1824" y="577" width="645" height="19" style="fill:rgb(56,61,73);fill-opacity:0.13;"/>
                            </g>
                        </g>
                        <g transform="matrix(1,0,0,1,0,-122.743)">
                            <text x="87.5px" y="2151.82px" style="font-family:'ArialMT', 'Arial', sans-serif;font-size:50px;fill:rgb(26,26,26);fill-opacity:0.78;">2010 -</text>
                            <g transform="matrix(50,0,0,50,198.73,2243.48)">
                            </g>
                            <text x="87.5px" y="2243.48px" style="font-family:'ArialMT', 'Arial', sans-serif;font-size:50px;fill:rgb(26,26,26);fill-opacity:0.78;">2015</text>
                        </g>
                        <g transform="matrix(1,0,0,1,-158.5,-107.743)">
                            <text x="584px" y="2136.79px" style="font-family:'Arial-BoldMT', 'Arial', sans-serif;font-weight:700;font-size:50px;fill:rgb(26,26,26);fill-opacity:0.78;">Bachelor of Science: Mechanical Engineering</text>
                            <text x="584px" y="2215.96px" style="font-family:'Arial-ItalicMT', 'Arial', sans-serif;font-style:italic;font-size:45.833px;fill:rgb(26,26,26);fill-opacity:0.62;">Oregon State University - Corvallis, OR</text>
                            <text x="584px" y="2295.12px" style="font-family:'ArialMT', 'Arial', sans-serif;font-size:45.833px;fill:rgb(26,26,26);fill-opacity:0.78;">Summa Cum Laude. 3.86 GP<tspan x="1181.83px 1212.4px 1225.13px 1237.04px 1259.95px 1285.44px " y="2295.12px 2295.12px 2295.12px 2295.12px 2295.12px 2295.12px ">A. Top</tspan> 5% of the class.</text>
                        </g>
                    </g>
                    <g id="Work-History" serif:id="Work History" transform="matrix(1,0,0,1,2.5,-299.722)">
                        <g transform="matrix(1,0,0,1,-1736.5,1376)">
                            <g transform="matrix(66.6667,0,0,66.6667,2237.67,538.721)">
                            </g>
                            <text x="1824px" y="538.721px" style="font-family:'Arial-BoldMT', 'Arial', sans-serif;font-weight:700;font-size:66.667px;">W<tspan x="1885.72px 1926.44px " y="538.721px 538.721px ">or</tspan>k History</text>
                        </g>
                        <g transform="matrix(2.45736,0,0,0.315789,-4394.73,1767.29)">
                            <g id="Divider2" serif:id="Divider">
                                <rect id="Divider3" serif:id="Divider" x="1824" y="577" width="645" height="19" style="fill:rgb(56,61,73);fill-opacity:0.13;"/>
                            </g>
                        </g>
                        <g transform="matrix(1,0,0,1,-1.25,-27.5858)">
                            <g transform="matrix(1,0,0,1,0,-100)">
                                <text x="87.5px" y="2151.82px" style="font-family:'ArialMT', 'Arial', sans-serif;font-size:50px;fill:rgb(26,26,26);fill-opacity:0.78;">2020 -</text>
                                <g transform="matrix(50,0,0,50,259.814,2243.48)">
                                </g>
                                <text x="87.5px" y="2243.48px" style="font-family:'ArialMT', 'Arial', sans-serif;font-size:50px;fill:rgb(26,26,26);fill-opacity:0.78;">Present</text>
                            </g>
                            <g transform="matrix(1,0,0,1,-161,-85)">
                                <text x="584px" y="2136.79px" style="font-family:'Arial-BoldMT', 'Arial', sans-serif;font-weight:700;font-size:50px;fill:rgb(26,26,26);fill-opacity:0.78;">Sr<tspan x="634.049px 647.94px " y="2136.79px 2136.79px ">. </tspan>Software Engineer</text>
                                <text x="584px" y="2211.79px" style="font-family:'Arial-ItalicMT', 'Arial', sans-serif;font-style:italic;font-size:45.833px;fill:rgb(26,26,26);fill-opacity:0.62;">Brainium Studios - Portland, OR</text>
                                <text x="584px" y="2288.43px" style="font-family:'ArialMT', 'Arial', sans-serif;font-size:45.833px;fill:rgb(26,26,26);fill-opacity:0.78;">• <tspan x="659px " y="2288.43px ">D</tspan>eveloped mobile games on a team</text>
                                <text x="584px" y="2352.56px" style="font-family:'ArialMT', 'Arial', sans-serif;font-size:45.833px;fill:rgb(26,26,26);fill-opacity:0.78;">• <tspan x="659px " y="2352.56px ">P</tspan>romoted to Sr<tspan x="964.705px 977.439px " y="2352.56px 2352.56px ">. </tspan>Engineer after 1 year in the industry</text>
                                <text x="584px" y="2416.7px" style="font-family:'ArialMT', 'Arial', sans-serif;font-size:45.833px;fill:rgb(26,26,26);fill-opacity:0.78;">• <tspan x="659px " y="2416.7px ">L</tspan>ead development of an in-house tool to display</text>
                                <g transform="matrix(45.8333,0,0,45.8333,923.907,2468.33)">
                                </g>
                                <g transform="matrix(45.8333,0,0,45.8333,936.641,2468.33)">
                                </g>
                                <text x="659px" y="2468.33px" style="font-family:'ArialMT', 'Arial', sans-serif;font-size:45.833px;fill:rgb(26,26,26);fill-opacity:0.78;">remotely-conﬁgured messages and ads in-game</text>
                            </g>
                        </g>
                        <g transform="matrix(1,0,0,1,-2.5,271.026)">
                            <g transform="matrix(1,0,0,1,0,399)">
                                <text x="87.5px" y="2151.82px" style="font-family:'ArialMT', 'Arial', sans-serif;font-size:50px;fill:rgb(26,26,26);fill-opacity:0.78;">2015 -</text>
                                <g transform="matrix(50,0,0,50,198.73,2243.48)">
                                </g>
                                <text x="87.5px" y="2243.48px" style="font-family:'ArialMT', 'Arial', sans-serif;font-size:50px;fill:rgb(26,26,26);fill-opacity:0.78;">2019</text>
                            </g>
                            <g transform="matrix(1,0,0,1,-161,414)">
                                <text x="584px" y="2136.79px" style="font-family:'Arial-BoldMT', 'Arial', sans-serif;font-weight:700;font-size:50px;fill:rgb(26,26,26);fill-opacity:0.78;">Sales Engineer</text>
                                <text x="584px" y="2207.62px" style="font-family:'Arial-ItalicMT', 'Arial', sans-serif;font-style:italic;font-size:45.833px;fill:rgb(26,26,26);fill-opacity:0.62;">Bulk Handling Systems - Eugene, OR</text>
                                <text x="584px" y="2278.46px" style="font-family:'ArialMT', 'Arial', sans-serif;font-size:45.833px;fill:rgb(26,26,26);fill-opacity:0.78;">• <tspan x="659px " y="2278.46px ">C</tspan>oordinated with customers, engineering, and sales to</text>
                                <text x="659px" y="2328.46px" style="font-family:'ArialMT', 'Arial', sans-serif;font-size:45.833px;fill:rgb(26,26,26);fill-opacity:0.78;">propose recycling facilities in time</text>
                                <text x="584px" y="2390.96px" style="font-family:'ArialMT', 'Arial', sans-serif;font-size:45.833px;fill:rgb(26,26,26);fill-opacity:0.78;">• <tspan x="659px " y="2390.96px ">D</tspan>eveloped and improved internal design tools</text>
                                <text x="584px" y="2455.09px" style="font-family:'ArialMT', 'Arial', sans-serif;font-size:45.833px;fill:rgb(26,26,26);fill-opacity:0.78;">• <tspan x="659px 685.296px 700.559px " y="2455.09px 2455.09px 2455.09px ">Tra</tspan>ined new employees and organized training sessions</text>
                            </g>
                        </g>
                        <g transform="matrix(1,0,0,1,-2.5,407.311)">
                            <g transform="matrix(1,0,0,1,0,-100)">
                                <text x="87.5px" y="2151.82px" style="font-family:'ArialMT', 'Arial', sans-serif;font-size:50px;fill:rgb(26,26,26);fill-opacity:0.78;">2021 -</text>
                                <g transform="matrix(50,0,0,50,259.814,2243.48)">
                                </g>
                                <text x="87.5px" y="2243.48px" style="font-family:'ArialMT', 'Arial', sans-serif;font-size:50px;fill:rgb(26,26,26);fill-opacity:0.78;">Present</text>
                            </g>
                            <g transform="matrix(1,0,0,1,-161,-85)">
                                <text x="584px" y="2133.81px" style="font-family:'Arial-BoldMT', 'Arial', sans-serif;font-weight:700;font-size:45.833px;fill:rgb(26,26,26);fill-opacity:0.78;">W<tspan x="626.432px 651.922px " y="2133.81px 2133.81px ">ed</tspan>ding DJ/MC</text>
                                <text x="584px" y="2204.64px" style="font-family:'Arial-ItalicMT', 'Arial', sans-serif;font-style:italic;font-size:45.833px;fill:rgb(26,26,26);fill-opacity:0.62;">Private Contractor - Portland, OR</text>
                                <text x="584px" y="2277.11px" style="font-family:'ArialMT', 'Arial', sans-serif;font-size:45.833px;fill:rgb(26,26,26);fill-opacity:0.78;">• <tspan x="659px " y="2277.11px ">C</tspan>oordinate with couples to deliver the ideal atmosphere</text>
                                <g transform="matrix(45.8333,0,0,45.8333,873.06,2328.75)">
                                </g>
                                <g transform="matrix(45.8333,0,0,45.8333,885.794,2328.75)">
                                </g>
                                <text x="659px" y="2328.75px" style="font-family:'ArialMT', 'Arial', sans-serif;font-size:45.833px;fill:rgb(26,26,26);fill-opacity:0.78;">and event ﬂow for their wedding</text>
                                <g transform="matrix(45.8333,0,0,45.8333,1673.11,2392.88)">
                                </g>
                                <text x="584px" y="2392.88px" style="font-family:'ArialMT', 'Arial', sans-serif;font-size:45.833px;fill:rgb(26,26,26);fill-opacity:0.78;">• <tspan x="659px " y="2392.88px ">P</tspan>rovide high-quality sound and lighting equipment</text>
                            </g>
                        </g>
                    </g>
                    <g id="Projects" transform="matrix(1,0,0,1,7.38964e-13,-231.819)">
                        <g transform="matrix(1,0,0,1,-496.5,-994)">
                            <text x="584px" y="2139.77px" style="font-family:'Arial-BoldMT', 'Arial', sans-serif;font-weight:700;font-size:54.167px;fill:rgb(26,26,26);fill-opacity:0.78;">Captivate</text>
                            <text x="850.982px" y="2139.77px" style="font-family:'Arial-ItalicMT', 'Arial', sans-serif;font-style:italic;font-size:41.667px;fill:rgb(26,26,26);fill-opacity:0.78;">-  T<tspan x="910.369px 931.203px " y="2139.77px 2139.77px ">yp</tspan>escript, React, Electron</text>
                            <text x="734px" y="2206.44px" style="font-family:'ArialMT', 'Arial', sans-serif;font-size:45.833px;fill:rgb(26,26,26);fill-opacity:0.78;"><tspan x="734px " y="2206.44px ">L</tspan>ive stage lighting &amp; visuals that sync to music. - CaptivateSynth.com</text>
                            <text x="584px" y="2306.44px" style="font-family:'Arial-BoldMT', 'Arial', sans-serif;font-weight:700;font-size:54.167px;fill:rgb(26,26,26);fill-opacity:0.78;">FeelW<tspan x="743.035px 758.084px " y="2306.44px 2306.44px ">it</tspan>hMe.net</text>
                            <text x="1008.54px" y="2306.44px" style="font-family:'ArialMT', 'Arial', sans-serif;font-size:50px;fill:rgb(26,26,26);fill-opacity:0.78;">-</text>
                            <text x="1052.97px" y="2306.44px" style="font-family:'Arial-ItalicMT', 'Arial', sans-serif;font-style:italic;font-size:41.667px;fill:rgb(26,26,26);fill-opacity:0.78;">React, Node.js, MongoDB, GraphQL, <tspan x="1750.83px 1778.62px " y="2306.44px 2306.44px ">Ap</tspan>ollo, Redux, FP</text>
                            <text x="734px" y="2373.11px" style="font-family:'ArialMT', 'Arial', sans-serif;font-size:45.833px;fill:rgb(26,26,26);fill-opacity:0.78;"><tspan x="734px " y="2373.11px ">C</tspan>onnects Spotify users based on common music interest.</text>
                            <text x="584px" y="2473.11px" style="font-family:'Arial-BoldMT', 'Arial', sans-serif;font-weight:700;font-size:54.167px;fill:rgb(26,26,26);fill-opacity:0.78;">Personal Space | The Rest of us</text>
                            <text x="1429.04px" y="2473.11px" style="font-family:'Arial-ItalicMT', 'Arial', sans-serif;font-style:italic;font-size:41.667px;fill:rgb(26,26,26);fill-opacity:0.78;">-  C#, Unity<tspan x="1634.32px 1645.9px " y="2473.11px 2473.11px ">, </tspan>Lua, Love2D</text>
                            <g transform="matrix(45.8333,0,0,45.8333,1689.34,2539.77)">
                            </g>
                            <g transform="matrix(45.8333,0,0,45.8333,1702.07,2539.77)">
                            </g>
                            <text x="734px" y="2539.77px" style="font-family:'ArialMT', 'Arial', sans-serif;font-size:45.833px;fill:rgb(26,26,26);fill-opacity:0.78;"><tspan x="734px " y="2539.77px ">A</tspan>ddictive, accessible games with a focus on difﬁculty<tspan x="1803.09px 1815.83px " y="2539.77px 2539.77px ">, </tspan>feel, and detail.</text>
                            <text x="584px" y="2639.77px" style="font-family:'Arial-BoldMT', 'Arial', sans-serif;font-weight:700;font-size:54.167px;fill:rgb(26,26,26);fill-opacity:0.78;">V<tspan x="619.15px 634.199px " y="2639.77px 2639.77px ">ib</tspan>e Pan Feeder</text>
                            <text x="1027.63px" y="2639.77px" style="font-family:'Arial-ItalicMT', 'Arial', sans-serif;font-style:italic;font-size:41.667px;fill:rgb(26,26,26);fill-opacity:0.78;">-  Dynamic <tspan x="1236.76px 1264.55px " y="2639.77px 2639.77px ">An</tspan>alysis, 3D Printing, Fabrication, <tspan x="1872.05px 1899.85px " y="2639.77px 2639.77px ">Ar</tspan>duino</text>
                            <text x="734px" y="2706.44px" style="font-family:'ArialMT', 'Arial', sans-serif;font-size:45.833px;fill:rgb(26,26,26);fill-opacity:0.78;"><tspan x="734px 762.042px 774.776px " y="2706.44px 2706.44px 2706.44px ">A r</tspan>evolutionary design for a low-cost material-handling device</text>
                        </g>
                        <g transform="matrix(1,0,0,1,-1736.5,482)">
                            <g transform="matrix(66.6667,0,0,66.6667,2387.22,538.721)">
                            </g>
                            <text x="1824px" y="538.721px" style="font-family:'Arial-BoldMT', 'Arial', sans-serif;font-weight:700;font-size:66.667px;">Personal Projects</text>
                        </g>
                        <g transform="matrix(2.45736,0,0,0.315789,-4394.73,873.289)">
                            <g id="Divider4" serif:id="Divider">
                                <rect id="Divider5" serif:id="Divider" x="1824" y="577" width="645" height="19" style="fill:rgb(56,61,73);fill-opacity:0.13;"/>
                            </g>
                        </g>
                    </g>
                    <g transform="matrix(1,0,0,1,-16.5,10.0003)">
                        <text x="104px" y="526.815px" style="font-family:'ArialMT', 'Arial', sans-serif;font-size:50px;fill:rgb(26,26,26);fill-opacity:0.81;">A<tspan x="134.591px 148.482px " y="526.815px 526.815px "> p</tspan>assionate, creative engineer who is happiest when learning or</text>
                        <text x="104px" y="589.315px" style="font-family:'ArialMT', 'Arial', sans-serif;font-size:50px;fill:rgb(26,26,26);fill-opacity:0.81;">inventing something cool. Looking for a career where my unique skillset</text>
                        <g transform="matrix(50,0,0,50,1540.91,651.815)">
                        </g>
                        <text x="104px" y="651.815px" style="font-family:'ArialMT', 'Arial', sans-serif;font-size:50px;fill:rgb(26,26,26);fill-opacity:0.81;">will be fully utilized to innovate and make the world a better place</text>
                    </g>
                </g>
                <g id="Side-Bar" serif:id="Side Bar" transform="matrix(1.03059,0,0,1,2818,-9.18885e-13)">
                    <g id="BG2" serif:id="BG">
                    </g>
                    <g id="BG3" serif:id="BG" transform="matrix(1,0,0,0.989521,0,4.57911)">
                        <rect x="1765" y="437" width="755" height="2863" style="fill:rgb(244,244,244);"/>
                    </g>
                    <g id="Spoken-Languages" serif:id="Spoken Languages" transform="matrix(1,0,0,1,1.81899e-12,1387.24)">
                        <g transform="matrix(1,0,0,1,-4,807)">
                            <g transform="matrix(58.3333,0,0,58.3333,2358.83,532.756)">
                            </g>
                            <text x="1824px" y="532.756px" style="font-family:'Arial-BoldMT', 'Arial', sans-serif;font-weight:700;font-size:58.333px;">Spoken Languages</text>
                        </g>
                        <g transform="matrix(1,0,0,0.315789,-4,1191.79)">
                            <g id="Divider6" serif:id="Divider">
                                <rect id="Divider7" serif:id="Divider" x="1824" y="577" width="645" height="19" style="fill:rgb(56,61,73);fill-opacity:0.13;"/>
                            </g>
                        </g>
                        <g id="Skill-Zone" serif:id="Skill Zone" transform="matrix(0.790135,0,0,0.790135,517.317,559.183)">
                            <g id="Empty-Skill-Zone" serif:id="Empty Skill Zone" transform="matrix(0.695349,0,0,0.695349,900.465,850.16)">
                                <g id="Circle" transform="matrix(1,0,0,1,356,0)">
                                    <circle id="Circle1" serif:id="Circle" cx="1857" cy="967" r="37" style="fill:rgb(56,61,73);fill-opacity:0.13;"/>
                                </g>
                                <g id="Circle2" serif:id="Circle" transform="matrix(1,0,0,1,267,0)">
                                    <circle id="Circle3" serif:id="Circle" cx="1857" cy="967" r="37" style="fill:rgb(56,61,73);fill-opacity:0.13;"/>
                                </g>
                                <g id="Circle4" serif:id="Circle" transform="matrix(1,0,0,1,178,0)">
                                    <circle id="Circle5" serif:id="Circle" cx="1857" cy="967" r="37" style="fill:rgb(56,61,73);fill-opacity:0.13;"/>
                                </g>
                                <g id="Circle6" serif:id="Circle" transform="matrix(1,0,0,1,89,0)">
                                    <circle id="Circle7" serif:id="Circle" cx="1857" cy="967" r="37" style="fill:rgb(56,61,73);fill-opacity:0.13;"/>
                                </g>
                                <g id="Circle8" serif:id="Circle">
                                    <circle id="Circle9" serif:id="Circle" cx="1857" cy="967" r="37" style="fill:rgb(56,61,73);fill-opacity:0.13;"/>
                                </g>
                            </g>
                            <g transform="matrix(1.275,0,0,1.3907,-552.775,-600.337)">
                                <g id="Filled-Circle" serif:id="Filled Circle">
                                    <ellipse cx="2201" cy="1526.5" rx="20" ry="18.5" style="fill:rgb(56,61,73);fill-opacity:0.75;"/>
                                </g>
                            </g>
                            <g transform="matrix(1.275,0,0,1.3907,-614.775,-600.337)">
                                <g id="Filled-Circle1" serif:id="Filled Circle">
                                    <ellipse cx="2201" cy="1526.5" rx="20" ry="18.5" style="fill:rgb(56,61,73);fill-opacity:0.75;"/>
                                </g>
                            </g>
                        </g>
                        <g id="Skill-Zone1" serif:id="Skill Zone" transform="matrix(0.790135,0,0,0.790135,517.317,413.436)">
                            <g id="Empty-Skill-Zone1" serif:id="Empty Skill Zone" transform="matrix(0.695349,0,0,0.695349,900.465,850.16)">
                                <g id="Circle10" serif:id="Circle" transform="matrix(1,0,0,1,356,0)">
                                    <circle id="Circle11" serif:id="Circle" cx="1857" cy="967" r="37" style="fill:rgb(56,61,73);fill-opacity:0.13;"/>
                                </g>
                                <g id="Circle12" serif:id="Circle" transform="matrix(1,0,0,1,267,0)">
                                    <circle id="Circle13" serif:id="Circle" cx="1857" cy="967" r="37" style="fill:rgb(56,61,73);fill-opacity:0.13;"/>
                                </g>
                                <g id="Circle14" serif:id="Circle" transform="matrix(1,0,0,1,178,0)">
                                    <circle id="Circle15" serif:id="Circle" cx="1857" cy="967" r="37" style="fill:rgb(56,61,73);fill-opacity:0.13;"/>
                                </g>
                                <g id="Circle16" serif:id="Circle" transform="matrix(1,0,0,1,89,0)">
                                    <circle id="Circle17" serif:id="Circle" cx="1857" cy="967" r="37" style="fill:rgb(56,61,73);fill-opacity:0.13;"/>
                                </g>
                                <g id="Circle18" serif:id="Circle">
                                    <circle id="Circle19" serif:id="Circle" cx="1857" cy="967" r="37" style="fill:rgb(56,61,73);fill-opacity:0.13;"/>
                                </g>
                            </g>
                            <g transform="matrix(1.275,0,0,1.3907,-428.775,-600.337)">
                                <g id="Filled-Circle2" serif:id="Filled Circle">
                                    <ellipse cx="2201" cy="1526.5" rx="20" ry="18.5" style="fill:rgb(56,61,73);fill-opacity:0.75;"/>
                                </g>
                            </g>
                            <g transform="matrix(1.275,0,0,1.3907,-490.775,-600.337)">
                                <g id="Filled-Circle3" serif:id="Filled Circle">
                                    <ellipse cx="2201" cy="1526.5" rx="20" ry="18.5" style="fill:rgb(56,61,73);fill-opacity:0.75;"/>
                                </g>
                            </g>
                            <g transform="matrix(1.275,0,0,1.3907,-552.775,-600.337)">
                                <g id="Filled-Circle4" serif:id="Filled Circle">
                                    <ellipse cx="2201" cy="1526.5" rx="20" ry="18.5" style="fill:rgb(56,61,73);fill-opacity:0.75;"/>
                                </g>
                            </g>
                            <g transform="matrix(1.275,0,0,1.3907,-614.775,-600.337)">
                                <g id="Filled-Circle5" serif:id="Filled Circle">
                                    <ellipse cx="2201" cy="1526.5" rx="20" ry="18.5" style="fill:rgb(56,61,73);fill-opacity:0.75;"/>
                                </g>
                            </g>
                        </g>
                        <g id="Skill-Zone2" serif:id="Skill Zone" transform="matrix(0.790135,0,0,0.790135,517.317,259.837)">
                            <g id="Empty-Skill-Zone2" serif:id="Empty Skill Zone" transform="matrix(0.695349,0,0,0.695349,900.465,850.16)">
                                <g id="Circle20" serif:id="Circle" transform="matrix(1,0,0,1,356,0)">
                                    <circle id="Circle21" serif:id="Circle" cx="1857" cy="967" r="37" style="fill:rgb(56,61,73);fill-opacity:0.13;"/>
                                </g>
                                <g id="Circle22" serif:id="Circle" transform="matrix(1,0,0,1,267,0)">
                                    <circle id="Circle23" serif:id="Circle" cx="1857" cy="967" r="37" style="fill:rgb(56,61,73);fill-opacity:0.13;"/>
                                </g>
                                <g id="Circle24" serif:id="Circle" transform="matrix(1,0,0,1,178,0)">
                                    <circle id="Circle25" serif:id="Circle" cx="1857" cy="967" r="37" style="fill:rgb(56,61,73);fill-opacity:0.13;"/>
                                </g>
                                <g id="Circle26" serif:id="Circle" transform="matrix(1,0,0,1,89,0)">
                                    <circle id="Circle27" serif:id="Circle" cx="1857" cy="967" r="37" style="fill:rgb(56,61,73);fill-opacity:0.13;"/>
                                </g>
                                <g id="Circle28" serif:id="Circle">
                                    <circle id="Circle29" serif:id="Circle" cx="1857" cy="967" r="37" style="fill:rgb(56,61,73);fill-opacity:0.13;"/>
                                </g>
                            </g>
                            <g transform="matrix(1.275,0,0,1.3907,-366.775,-600.337)">
                                <g id="Filled-Circle6" serif:id="Filled Circle">
                                    <ellipse cx="2201" cy="1526.5" rx="20" ry="18.5" style="fill:rgb(56,61,73);fill-opacity:0.75;"/>
                                </g>
                            </g>
                            <g transform="matrix(1.275,0,0,1.3907,-428.775,-600.337)">
                                <g id="Filled-Circle7" serif:id="Filled Circle">
                                    <ellipse cx="2201" cy="1526.5" rx="20" ry="18.5" style="fill:rgb(56,61,73);fill-opacity:0.75;"/>
                                </g>
                            </g>
                            <g transform="matrix(1.275,0,0,1.3907,-490.775,-600.337)">
                                <g id="Filled-Circle8" serif:id="Filled Circle">
                                    <ellipse cx="2201" cy="1526.5" rx="20" ry="18.5" style="fill:rgb(56,61,73);fill-opacity:0.75;"/>
                                </g>
                            </g>
                            <g transform="matrix(1.275,0,0,1.3907,-552.775,-600.337)">
                                <g id="Filled-Circle9" serif:id="Filled Circle">
                                    <ellipse cx="2201" cy="1526.5" rx="20" ry="18.5" style="fill:rgb(56,61,73);fill-opacity:0.75;"/>
                                </g>
                            </g>
                            <g transform="matrix(1.275,0,0,1.3907,-614.775,-600.337)">
                                <g id="Filled-Circle10" serif:id="Filled Circle">
                                    <ellipse cx="2201" cy="1526.5" rx="20" ry="18.5" style="fill:rgb(56,61,73);fill-opacity:0.75;"/>
                                </g>
                            </g>
                        </g>
                        <g transform="matrix(1,0,0,1,0,-1.46154)">
                            <text x="1820px" y="1479.79px" style="font-family:'Arial-BoldMT', 'Arial', sans-serif;font-weight:700;font-size:50px;fill:rgb(26,26,26);fill-opacity:0.81;">English</text>
                            <text x="1820px" y="1529.79px" style="font-family:'ArialMT', 'Arial', sans-serif;font-size:41.667px;fill:rgb(26,26,26);fill-opacity:0.81;">Native</text>
                            <text x="1820px" y="1629.79px" style="font-family:'Arial-BoldMT', 'Arial', sans-serif;font-weight:700;font-size:50px;fill:rgb(26,26,26);fill-opacity:0.81;">Spanish</text>
                            <text x="1820px" y="1679.79px" style="font-family:'ArialMT', 'Arial', sans-serif;font-size:41.667px;fill:rgb(26,26,26);fill-opacity:0.81;">Conversational</text>
                            <text x="1820px" y="1779.79px" style="font-family:'Arial-BoldMT', 'Arial', sans-serif;font-weight:700;font-size:50px;fill:rgb(26,26,26);fill-opacity:0.81;">Chinese</text>
                            <text x="1820px" y="1829.79px" style="font-family:'ArialMT', 'Arial', sans-serif;font-size:41.667px;fill:rgb(26,26,26);fill-opacity:0.81;">Learning</text>
                        </g>
                    </g>
                    <g id="Experience" transform="matrix(1,0,0,1,4.09273e-12,-56.1147)">
                        <g transform="matrix(1,0,0,1,-4,753)">
                            <g transform="matrix(58.3333,0,0,58.3333,2135.29,532.756)">
                            </g>
                            <text x="1824px" y="532.756px" style="font-family:'Arial-BoldMT', 'Arial', sans-serif;font-weight:700;font-size:58.333px;">Experience</text>
                        </g>
                        <g transform="matrix(1,0,0,1,2126,148)">
                            <text x="170.85px" y="1258.85px" style="font-family:'ArialMT', 'Arial', sans-serif;font-size:41.667px;fill:rgb(26,26,26);fill-opacity:0.78;">4000 hrs</text>
                            <text x="170.85px" y="1351.88px" style="font-family:'ArialMT', 'Arial', sans-serif;font-size:41.667px;fill:rgb(26,26,26);fill-opacity:0.78;">4000 hrs</text>
                            <text x="170.85px" y="1490.74px" style="font-family:'ArialMT', 'Arial', sans-serif;font-size:41.667px;fill:rgb(26,26,26);fill-opacity:0.78;">4000 hrs</text>
                            <text x="170.85px" y="1596.27px" style="font-family:'ArialMT', 'Arial', sans-serif;font-size:41.667px;fill:rgb(26,26,26);fill-opacity:0.78;">1000 hrs</text>
                            <text x="170.85px" y="1701.8px" style="font-family:'ArialMT', 'Arial', sans-serif;font-size:41.667px;fill:rgb(26,26,26);fill-opacity:0.78;">1000 hrs</text>
                            <text x="170.85px" y="1807.33px" style="font-family:'ArialMT', 'Arial', sans-serif;font-size:41.667px;fill:rgb(26,26,26);fill-opacity:0.78;">1000 hrs</text>
                            <text x="194.023px" y="1971.19px" style="font-family:'ArialMT', 'Arial', sans-serif;font-size:41.667px;fill:rgb(26,26,26);fill-opacity:0.78;">500 hrs</text>
                            <text x="194.023px" y="2076.72px" style="font-family:'ArialMT', 'Arial', sans-serif;font-size:41.667px;fill:rgb(26,26,26);fill-opacity:0.78;">500 hrs</text>
                            <text x="194.023px" y="2182.25px" style="font-family:'ArialMT', 'Arial', sans-serif;font-size:41.667px;fill:rgb(26,26,26);fill-opacity:0.78;">300 hrs</text>
                            <text x="194.023px" y="2287.78px" style="font-family:'ArialMT', 'Arial', sans-serif;font-size:41.667px;fill:rgb(26,26,26);fill-opacity:0.78;">200 hrs</text>
                            <text x="194.023px" y="2393.31px" style="font-family:'ArialMT', 'Arial', sans-serif;font-size:41.667px;fill:rgb(26,26,26);fill-opacity:0.78;">100 hrs</text>
                            <g transform="matrix(41.6667,0,0,41.6667,333,2498.84)">
                            </g>
                            <text x="194.023px" y="2498.84px" style="font-family:'ArialMT', 'Arial', sans-serif;font-size:41.667px;fill:rgb(26,26,26);fill-opacity:0.78;">100 hrs</text>
                        </g>
                        <g transform="matrix(1,0,0,0.315789,-4,1134.29)">
                            <g id="Divider8" serif:id="Divider">
                                <rect id="Divider9" serif:id="Divider" x="1824" y="577" width="645" height="19" style="fill:rgb(56,61,73);fill-opacity:0.13;"/>
                            </g>
                        </g>
                        <g transform="matrix(1,0,0,1,-1.47793e-12,-67)">
                            <text x="1820px" y="1473.83px" style="font-family:'Arial-BoldMT', 'Arial', sans-serif;font-weight:700;font-size:41.667px;fill:rgb(26,26,26);fill-opacity:0.81;">CAD / 3D Modeling</text>
                            <text x="1820px" y="1565.49px" style="font-family:'Arial-BoldMT', 'Arial', sans-serif;font-weight:700;font-size:41.667px;fill:rgb(26,26,26);fill-opacity:0.81;">Music</text>
                            <text x="1949.66px" y="1565.49px" style="font-family:'ArialMT', 'Arial', sans-serif;font-size:37.5px;fill:rgb(26,26,26);fill-opacity:0.81;">- W<tspan x="2007.28px 2019.77px " y="1565.49px 1565.49px ">ri</tspan>ting,</text>
                            <text x="1820px" y="1615.49px" style="font-family:'ArialMT', 'Arial', sans-serif;font-size:37.5px;fill:rgb(26,26,26);fill-opacity:0.81;">Recording, and Mixing</text>
                            <text x="1820px" y="1702.99px" style="font-family:'Arial-BoldMT', 'Arial', sans-serif;font-weight:700;font-size:41.667px;fill:rgb(26,26,26);fill-opacity:0.81;">Software Dev</text>
                            <text x="1820px" y="1807.16px" style="font-family:'Arial-BoldMT', 'Arial', sans-serif;font-weight:700;font-size:41.667px;fill:rgb(26,26,26);fill-opacity:0.81;">W<tspan x="1858.57px 1881.75px " y="1807.16px 1807.16px ">eb</tspan> Dev</text>
                            <text x="1820px" y="1911.33px" style="font-family:'Arial-BoldMT', 'Arial', sans-serif;font-weight:700;font-size:41.667px;fill:rgb(26,26,26);fill-opacity:0.81;">Graphic Design</text>
                            <text x="1820px" y="2015.49px" style="font-family:'Arial-BoldMT', 'Arial', sans-serif;font-weight:700;font-size:41.667px;fill:rgb(26,26,26);fill-opacity:0.81;">Google/Microsoft</text>
                            <text x="1820px" y="2077.99px" style="font-family:'Arial-BoldMT', 'Arial', sans-serif;font-weight:700;font-size:41.667px;fill:rgb(26,26,26);fill-opacity:0.81;">Productivity Suite</text>
                            <text x="1820px" y="2182.16px" style="font-family:'Arial-BoldMT', 'Arial', sans-serif;font-weight:700;font-size:41.667px;fill:rgb(26,26,26);fill-opacity:0.81;">3D  Printing</text>
                            <text x="1820px" y="2286.33px" style="font-family:'Arial-BoldMT', 'Arial', sans-serif;font-weight:700;font-size:41.667px;fill:rgb(26,26,26);fill-opacity:0.81;">Game Dev</text>
                            <text x="1820px" y="2390.49px" style="font-family:'Arial-BoldMT', 'Arial', sans-serif;font-weight:700;font-size:41.667px;fill:rgb(26,26,26);fill-opacity:0.81;">V<tspan x="1847.04px 1858.62px " y="2390.49px 2390.49px ">id</tspan>eo Editing</text>
                            <text x="1820px" y="2494.66px" style="font-family:'Arial-BoldMT', 'Arial', sans-serif;font-weight:700;font-size:41.667px;fill:rgb(26,26,26);fill-opacity:0.81;">W<tspan x="1858.57px 1884.03px " y="2494.66px 2494.66px ">oo</tspan>dworking</text>
                            <text x="1820px" y="2598.83px" style="font-family:'Arial-BoldMT', 'Arial', sans-serif;font-weight:700;font-size:41.667px;fill:rgb(26,26,26);fill-opacity:0.81;">Metalworking</text>
                            <text x="1820px" y="2702.99px" style="font-family:'Arial-BoldMT', 'Arial', sans-serif;font-weight:700;font-size:41.667px;fill:rgb(26,26,26);fill-opacity:0.81;">Unity</text>
                        </g>
                    </g>
                    <g id="Contact">
                        <g transform="matrix(1,0,0,0.315789,-4,400.289)">
                            <g id="Divider10" serif:id="Divider">
                                <rect id="Divider11" serif:id="Divider" x="1824" y="577" width="645" height="19" style="fill:rgb(56,61,73);fill-opacity:0.13;"/>
                            </g>
                        </g>
                        <g>
                            <text x="1820px" y="670.791px" style="font-family:'Arial-BoldMT', 'Arial', sans-serif;font-weight:700;font-size:50px;fill:rgb(26,26,26);fill-opacity:0.81;">Location</text>
                            <text x="1820px" y="729.124px" style="font-family:'ArialMT', 'Arial', sans-serif;font-size:50px;fill:rgb(26,26,26);fill-opacity:0.81;">Portland, Oregon</text>
                            <text x="1820px" y="787.458px" style="font-family:'ArialMT', 'Arial', sans-serif;font-size:50px;fill:rgb(26,26,26);fill-opacity:0.81;">USA</text>
                            <text x="1820px" y="879.124px" style="font-family:'Arial-BoldMT', 'Arial', sans-serif;font-weight:700;font-size:50px;fill:rgb(26,26,26);fill-opacity:0.81;">Phone</text>
                            <text x="1820px" y="937.458px" style="font-family:'ArialMT', 'Arial', sans-serif;font-size:50px;fill:rgb(26,26,26);fill-opacity:0.81;">+1 5038535767</text>
                            <text x="1820px" y="1029.12px" style="font-family:'Arial-BoldMT', 'Arial', sans-serif;font-weight:700;font-size:50px;fill:rgb(26,26,26);fill-opacity:0.81;">Email</text>
                            <text x="1820px" y="1087.46px" style="font-family:'ArialMT', 'Arial', sans-serif;font-size:50px;fill:rgb(26,26,26);fill-opacity:0.81;">spenser0saling@gmail.com</text>
                        </g>
                        <g transform="matrix(1,0,0,1,-4,9)">
                            <g transform="matrix(66.6667,0,0,66.6667,2072.14,538.721)">
                            </g>
                            <text x="1824px" y="538.721px" style="font-family:'Arial-BoldMT', 'Arial', sans-serif;font-weight:700;font-size:66.667px;">Contact</text>
                        </g>
                    </g>
                </g>
                <g id="Heading" transform="matrix(1.03059,0,0,1,2818,-9.18885e-13)">
                    <rect id="BG4" serif:id="BG" x="30" y="30" width="2490" height="407" style="fill:rgb(56,61,73);"/>
                    <g transform="matrix(1,0,0,1,15.5,17.5)">
                        <g transform="matrix(150,0,0,150,1155.69,201.373)">
                        </g>
                        <text x="72px" y="201.373px" style="font-family:'Arial-BoldMT', 'Arial', sans-serif;font-weight:700;font-size:150px;fill:rgb(234,234,234);">Spenser Saling</text>
                    </g>
                    <g transform="matrix(1,0,0,1,15.5,17.5)">
                        <g transform="matrix(75,0,0,75,1372.52,336.723)">
                        </g>
                        <text x="72px" y="336.723px" style="font-family:'ArialMT', 'Arial', sans-serif;font-size:75px;fill:rgb(206,206,206);">Creative Engineer - SailingT<tspan x="1001.63px 1043.34px " y="336.723px 336.723px ">oM</tspan>ars.com</text>
                    </g>
                </g>
            </g>
        </g>
    </g>
</svg>
