<?xml version="1.0" encoding="UTF-8" standalone="no"?><!DOCTYPE svg PUBLIC "-//W3C//DTD SVG 1.1//EN" "http://www.w3.org/Graphics/SVG/1.1/DTD/svg11.dtd"><svg width="100%" height="100%" viewBox="0 0 512 128" version="1.1" xmlns="http://www.w3.org/2000/svg" xmlns:xlink="http://www.w3.org/1999/xlink" xml:space="preserve" xmlns:serif="http://www.serif.com/" style="fill-rule:evenodd;clip-rule:evenodd;stroke-linejoin:round;stroke-miterlimit:2;"><rect id="Gate-2" serif:id="Gate 2" x="0" y="0" width="512" height="128" style="fill:none;"/><g id="Gate-21" serif:id="Gate 2"><g><g id="Gate-Mirror" serif:id="Gate Mirror"><circle cx="461" cy="64" r="51" style="fill:#fff;fill-opacity:0.16;"/><path d="M461.33,13.001l0.329,0.003l0.328,0.005l0.328,0.008l0.328,0.009l0.327,0.011l0.327,0.014l0.326,0.015l0.325,0.018l0.325,0.02l0.325,0.021l0.324,0.024l0.323,0.025l0.323,0.028l0.322,0.03l0.321,0.032l0.321,0.033l0.321,0.036l0.32,0.037l0.319,0.04l0.318,0.042l0.318,0.043l0.318,0.046l0.316,0.047l0.317,0.049l0.315,0.052l0.315,0.053l0.314,0.055l0.313,0.057l0.313,0.059l0.312,0.061l0.312,0.063l0.311,0.065l0.31,0.066l0.309,0.069l0.309,0.07l0.308,0.072l0.307,0.074l0.307,0.076l0.305,0.078l0.305,0.079l0.305,0.082l0.303,0.083l0.303,0.085l0.302,0.087l0.302,0.089l0.3,0.09l0.3,0.092l0.299,0.095l0.298,0.095l0.297,0.098l0.297,0.1l0.296,0.101l0.295,0.103l0.294,0.104l0.293,0.107l0.292,0.108l0.292,0.11l0.291,0.112l0.29,0.113l0.289,0.115l0.288,0.117l0.287,0.118l0.287,0.12l0.285,0.122l0.285,0.124l0.283,0.125l0.283,0.127l0.282,0.129l0.281,0.13l0.28,0.132l0.279,0.133l0.279,0.136l0.277,0.136l0.276,0.139l0.276,0.14l0.274,0.142l0.273,0.143l0.273,0.145l0.271,0.146l0.271,0.148l0.269,0.15l0.269,0.151l0.267,0.153l0.267,0.154l0.265,0.156l0.265,0.158l0.263,0.159l0.262,0.16l0.262,0.163l0.26,0.163l0.259,0.165l0.258,0.167l0.257,0.168l0.256,0.17l0.255,0.171l0.254,0.173l0.253,0.174l0.252,0.175l0.25,0.177l0.249,0.179l0.249,0.18l0.247,0.182l0.246,0.182l0.245,0.185l0.244,0.186l0.242,0.187l0.242,0.188l0.24,0.19l0.239,0.192l0.238,0.193l0.237,0.194l0.235,0.196l0.235,0.197l0.233,0.198l0.232,0.2l0.231,0.201l0.229,0.202l0.229,0.204l0.227,0.205l0.226,0.207l0.224,0.208l0.224,0.209l0.222,0.211l0.221,0.211l0.219,0.213l0.218,0.215l0.217,0.216l0.216,0.217l0.215,0.218l0.213,0.219l0.211,0.221l0.211,0.222l0.209,0.224l0.208,0.224l0.207,0.226l0.205,0.227l0.204,0.229l0.202,0.229l0.201,0.231l0.2,0.232l0.198,0.233l0.197,0.235l0.196,0.235l0.194,0.237l0.193,0.238l0.192,0.239l0.19,0.24l0.188,0.242l0.187,0.242l0.186,0.244l0.185,0.245l0.182,0.246l0.182,0.247l0.18,0.249l0.179,0.249l0.177,0.25l0.175,0.252l0.174,0.253l0.173,0.254l0.171,0.255l0.17,0.256l0.168,0.257l0.167,0.258l0.165,0.259l0.163,0.26l0.163,0.262l0.16,0.262l0.159,0.263l0.158,0.265l0.156,0.265l0.154,0.267l0.153,0.267l0.151,0.269l0.15,0.269l0.148,0.271l0.146,0.271l0.145,0.273l0.143,0.273l0.142,0.274l0.14,0.276l0.139,0.276l0.136,0.277l0.136,0.279l0.133,0.279l0.132,0.28l0.13,0.281l0.129,0.282l0.127,0.283l0.125,0.283l0.124,0.285l0.122,0.285l0.12,0.287l0.118,0.287l0.117,0.288l0.115,0.289l0.113,0.29l0.112,0.291l0.11,0.292l0.108,0.292l0.107,0.293l0.104,0.294l0.103,0.295l0.101,0.296l0.1,0.297l0.098,0.297l0.095,0.298l0.095,0.299l0.092,0.3l0.09,0.3l0.089,0.302l0.087,0.302l0.085,0.303l0.083,0.303l0.082,0.305l0.079,0.305l0.078,0.305l0.076,0.307l0.074,0.307l0.072,0.308l0.07,0.309l0.069,0.309l0.066,0.31l0.065,0.311l0.063,0.312l0.061,0.312l0.059,0.313l0.057,0.313l0.055,0.314l0.053,0.315l0.052,0.315l0.049,0.317l0.047,0.316l0.046,0.318l0.043,0.318l0.042,0.318l0.04,0.319l0.037,0.32l0.036,0.321l0.033,0.321l0.032,0.321l0.03,0.322l0.028,0.323l0.025,0.323l0.024,0.324l0.021,0.325l0.02,0.325l0.018,0.325l0.015,0.326l0.014,0.327l0.011,0.327l0.009,0.328l0.008,0.328l0.005,0.328l0.003,0.329l0.001,0.33l-0.001,0.33l-0.003,0.329l-0.005,0.328l-0.008,0.328l-0.009,0.328l-0.011,0.327l-0.014,0.327l-0.015,0.326l-0.018,0.325l-0.02,0.325l-0.021,0.325l-0.024,0.324l-0.025,0.323l-0.028,0.323l-0.03,0.322l-0.032,0.321l-0.033,0.321l-0.036,0.321l-0.037,0.32l-0.04,0.319l-0.042,0.318l-0.043,0.318l-0.046,0.318l-0.047,0.316l-0.049,0.317l-0.052,0.315l-0.053,0.315l-0.055,0.314l-0.057,0.313l-0.059,0.313l-0.061,0.312l-0.063,0.312l-0.065,0.311l-0.066,0.31l-0.069,0.309l-0.07,0.309l-0.072,0.308l-0.074,0.307l-0.076,0.307l-0.078,0.305l-0.079,0.305l-0.082,0.305l-0.083,0.303l-0.085,0.303l-0.087,0.302l-0.089,0.302l-0.09,0.3l-0.092,0.3l-0.095,0.299l-0.095,0.298l-0.098,0.297l-0.1,0.297l-0.101,0.296l-0.103,0.295l-0.104,0.294l-0.107,0.293l-0.108,0.292l-0.11,0.292l-0.112,0.291l-0.113,0.29l-0.115,0.289l-0.117,0.288l-0.118,0.287l-0.12,0.287l-0.122,0.285l-0.124,0.285l-0.125,0.283l-0.127,0.283l-0.129,0.282l-0.13,0.281l-0.132,0.28l-0.133,0.279l-0.136,0.279l-0.136,0.277l-0.139,0.276l-0.14,0.276l-0.142,0.274l-0.143,0.273l-0.145,0.273l-0.146,0.271l-0.148,0.271l-0.15,0.269l-0.151,0.269l-0.153,0.267l-0.154,0.267l-0.156,0.265l-0.158,0.265l-0.159,0.263l-0.16,0.262l-0.163,0.262l-0.163,0.26l-0.165,0.259l-0.167,0.258l-0.168,0.257l-0.17,0.256l-0.171,0.255l-0.173,0.254l-0.174,0.253l-0.175,0.252l-0.177,0.25l-0.179,0.249l-0.18,0.249l-0.182,0.247l-0.182,0.246l-0.185,0.245l-0.186,0.244l-0.187,0.242l-0.188,0.242l-0.19,0.24l-0.192,0.239l-0.193,0.238l-0.194,0.237l-0.196,0.235l-0.197,0.235l-0.198,0.233l-0.2,0.232l-0.201,0.231l-0.202,0.229l-0.204,0.229l-0.205,0.227l-0.207,0.226l-0.208,0.224l-0.209,0.224l-0.211,0.222l-0.211,0.221l-0.213,0.219l-0.215,0.218l-0.216,0.217l-0.217,0.216l-0.218,0.215l-0.219,0.213l-0.221,0.211l-0.222,0.211l-0.224,0.209l-0.224,0.208l-0.226,0.207l-0.227,0.205l-0.229,0.204l-0.229,0.202l-0.231,0.201l-0.232,0.2l-0.233,0.198l-0.235,0.197l-0.235,0.196l-0.237,0.194l-0.238,0.193l-0.239,0.192l-0.24,0.19l-0.242,0.188l-0.242,0.187l-0.244,0.186l-0.245,0.185l-0.246,0.182l-0.247,0.182l-0.249,0.18l-0.249,0.179l-0.25,0.177l-0.252,0.175l-0.253,0.174l-0.254,0.173l-0.255,0.171l-0.256,0.17l-0.257,0.168l-0.258,0.167l-0.259,0.165l-0.26,0.163l-0.262,0.163l-0.262,0.16l-0.263,0.159l-0.265,0.158l-0.265,0.156l-0.267,0.154l-0.267,0.153l-0.269,0.151l-0.269,0.15l-0.271,0.148l-0.271,0.146l-0.273,0.145l-0.273,0.143l-0.274,0.142l-0.276,0.14l-0.276,0.139l-0.277,0.136l-0.279,0.136l-0.279,0.133l-0.28,0.132l-0.281,0.13l-0.282,0.129l-0.283,0.127l-0.283,0.125l-0.285,0.124l-0.285,0.122l-0.287,0.12l-0.287,0.118l-0.288,0.117l-0.289,0.115l-0.29,0.113l-0.291,0.112l-0.292,0.11l-0.292,0.108l-0.293,0.107l-0.294,0.104l-0.295,0.103l-0.296,0.101l-0.297,0.1l-0.297,0.098l-0.298,0.095l-0.299,0.095l-0.3,0.092l-0.3,0.09l-0.302,0.089l-0.302,0.087l-0.303,0.085l-0.303,0.083l-0.305,0.082l-0.305,0.079l-0.305,0.078l-0.307,0.076l-0.307,0.074l-0.308,0.072l-0.309,0.07l-0.309,0.069l-0.31,0.066l-0.311,0.065l-0.312,0.063l-0.312,0.061l-0.313,0.059l-0.313,0.057l-0.314,0.055l-0.315,0.053l-0.315,0.052l-0.317,0.049l-0.316,0.047l-0.318,0.046l-0.318,0.043l-0.318,0.042l-0.319,0.04l-0.32,0.037l-0.321,0.036l-0.321,0.033l-0.321,0.032l-0.322,0.03l-0.323,0.028l-0.323,0.025l-0.324,0.024l-0.325,0.021l-0.325,0.02l-0.325,0.018l-0.326,0.015l-0.327,0.014l-0.327,0.011l-0.328,0.009l-0.328,0.008l-0.328,0.005l-0.329,0.003l-0.33,0.001l-0.33,-0.001l-0.329,-0.003l-0.328,-0.005l-0.328,-0.008l-0.328,-0.009l-0.327,-0.011l-0.327,-0.014l-0.326,-0.015l-0.325,-0.018l-0.325,-0.02l-0.325,-0.021l-0.324,-0.024l-0.323,-0.025l-0.323,-0.028l-0.322,-0.03l-0.321,-0.032l-0.321,-0.033l-0.321,-0.036l-0.32,-0.037l-0.319,-0.04l-0.318,-0.042l-0.318,-0.043l-0.318,-0.046l-0.316,-0.047l-0.317,-0.049l-0.315,-0.052l-0.315,-0.053l-0.314,-0.055l-0.313,-0.057l-0.313,-0.059l-0.312,-0.061l-0.312,-0.063l-0.311,-0.065l-0.31,-0.066l-0.309,-0.069l-0.309,-0.07l-0.308,-0.072l-0.307,-0.074l-0.307,-0.076l-0.305,-0.078l-0.305,-0.079l-0.305,-0.082l-0.303,-0.083l-0.303,-0.085l-0.302,-0.087l-0.302,-0.089l-0.3,-0.09l-0.3,-0.092l-0.299,-0.095l-0.298,-0.095l-0.297,-0.098l-0.297,-0.1l-0.296,-0.101l-0.295,-0.103l-0.294,-0.104l-0.293,-0.107l-0.292,-0.108l-0.292,-0.11l-0.291,-0.112l-0.29,-0.113l-0.289,-0.115l-0.288,-0.117l-0.287,-0.118l-0.287,-0.12l-0.285,-0.122l-0.285,-0.124l-0.283,-0.125l-0.283,-0.127l-0.282,-0.129l-0.281,-0.13l-0.28,-0.132l-0.279,-0.133l-0.279,-0.136l-0.277,-0.136l-0.276,-0.139l-0.276,-0.14l-0.274,-0.142l-0.273,-0.143l-0.273,-0.145l-0.271,-0.146l-0.271,-0.148l-0.269,-0.15l-0.269,-0.151l-0.267,-0.153l-0.267,-0.154l-0.265,-0.156l-0.265,-0.158l-0.263,-0.159l-0.262,-0.16l-0.262,-0.163l-0.26,-0.163l-0.259,-0.165l-0.258,-0.167l-0.257,-0.168l-0.256,-0.17l-0.255,-0.171l-0.254,-0.173l-0.253,-0.174l-0.252,-0.175l-0.25,-0.177l-0.249,-0.179l-0.249,-0.18l-0.247,-0.182l-0.246,-0.182l-0.245,-0.185l-0.244,-0.186l-0.242,-0.187l-0.242,-0.188l-0.24,-0.19l-0.239,-0.192l-0.238,-0.193l-0.237,-0.194l-0.235,-0.196l-0.235,-0.197l-0.233,-0.198l-0.232,-0.2l-0.231,-0.201l-0.229,-0.202l-0.229,-0.204l-0.227,-0.205l-0.226,-0.207l-0.224,-0.208l-0.224,-0.209l-0.222,-0.211l-0.221,-0.211l-0.219,-0.213l-0.218,-0.215l-0.217,-0.216l-0.216,-0.217l-0.215,-0.218l-0.213,-0.219l-0.211,-0.221l-0.211,-0.222l-0.209,-0.224l-0.208,-0.224l-0.207,-0.226l-0.205,-0.227l-0.204,-0.229l-0.202,-0.229l-0.201,-0.231l-0.2,-0.232l-0.198,-0.233l-0.197,-0.235l-0.196,-0.235l-0.194,-0.237l-0.193,-0.238l-0.192,-0.239l-0.19,-0.24l-0.188,-0.242l-0.187,-0.242l-0.186,-0.244l-0.185,-0.245l-0.182,-0.246l-0.182,-0.247l-0.18,-0.249l-0.179,-0.249l-0.177,-0.25l-0.175,-0.252l-0.174,-0.253l-0.173,-0.254l-0.171,-0.255l-0.17,-0.256l-0.168,-0.257l-0.167,-0.258l-0.165,-0.259l-0.163,-0.26l-0.163,-0.262l-0.16,-0.262l-0.159,-0.263l-0.158,-0.265l-0.156,-0.265l-0.154,-0.267l-0.153,-0.267l-0.151,-0.269l-0.15,-0.269l-0.148,-0.271l-0.146,-0.271l-0.145,-0.273l-0.143,-0.273l-0.142,-0.274l-0.14,-0.276l-0.139,-0.276l-0.136,-0.277l-0.136,-0.279l-0.133,-0.279l-0.132,-0.28l-0.13,-0.281l-0.129,-0.282l-0.127,-0.283l-0.125,-0.283l-0.124,-0.285l-0.122,-0.285l-0.12,-0.287l-0.118,-0.287l-0.117,-0.288l-0.115,-0.289l-0.113,-0.29l-0.112,-0.291l-0.11,-0.292l-0.108,-0.292l-0.107,-0.293l-0.104,-0.294l-0.103,-0.295l-0.101,-0.296l-0.1,-0.297l-0.098,-0.297l-0.095,-0.298l-0.095,-0.299l-0.092,-0.3l-0.09,-0.3l-0.089,-0.302l-0.087,-0.302l-0.085,-0.303l-0.083,-0.303l-0.082,-0.305l-0.079,-0.305l-0.078,-0.305l-0.076,-0.307l-0.074,-0.307l-0.072,-0.308l-0.07,-0.309l-0.069,-0.309l-0.066,-0.31l-0.065,-0.311l-0.063,-0.312l-0.061,-0.312l-0.059,-0.313l-0.057,-0.313l-0.055,-0.314l-0.053,-0.315l-0.052,-0.315l-0.049,-0.317l-0.047,-0.316l-0.046,-0.318l-0.043,-0.318l-0.042,-0.318l-0.04,-0.319l-0.037,-0.32l-0.036,-0.321l-0.033,-0.321l-0.032,-0.321l-0.03,-0.322l-0.028,-0.323l-0.025,-0.323l-0.024,-0.324l-0.021,-0.325l-0.02,-0.325l-0.018,-0.325l-0.015,-0.326l-0.014,-0.327l-0.011,-0.327l-0.009,-0.328l-0.008,-0.328l-0.005,-0.328l-0.003,-0.329l-0.001,-0.33l0.001,-0.33l0.003,-0.329l0.005,-0.328l0.008,-0.328l0.009,-0.328l0.011,-0.327l0.014,-0.327l0.015,-0.326l0.018,-0.325l0.02,-0.325l0.021,-0.325l0.024,-0.324l0.025,-0.323l0.028,-0.323l0.03,-0.322l0.032,-0.321l0.033,-0.321l0.036,-0.321l0.037,-0.32l0.04,-0.319l0.042,-0.318l0.043,-0.318l0.046,-0.318l0.047,-0.316l0.049,-0.317l0.052,-0.315l0.053,-0.315l0.055,-0.314l0.057,-0.313l0.059,-0.313l0.061,-0.312l0.063,-0.312l0.065,-0.311l0.066,-0.31l0.069,-0.309l0.07,-0.309l0.072,-0.308l0.074,-0.307l0.076,-0.307l0.078,-0.305l0.079,-0.305l0.082,-0.305l0.083,-0.303l0.085,-0.303l0.087,-0.302l0.089,-0.302l0.09,-0.3l0.092,-0.3l0.095,-0.299l0.095,-0.298l0.098,-0.297l0.1,-0.297l0.101,-0.296l0.103,-0.295l0.104,-0.294l0.107,-0.293l0.108,-0.292l0.11,-0.292l0.112,-0.291l0.113,-0.29l0.115,-0.289l0.117,-0.288l0.118,-0.287l0.12,-0.287l0.122,-0.285l0.124,-0.285l0.125,-0.283l0.127,-0.283l0.129,-0.282l0.13,-0.281l0.132,-0.28l0.133,-0.279l0.136,-0.279l0.136,-0.277l0.139,-0.276l0.14,-0.276l0.142,-0.274l0.143,-0.273l0.145,-0.273l0.146,-0.271l0.148,-0.271l0.15,-0.269l0.151,-0.269l0.153,-0.267l0.154,-0.267l0.156,-0.265l0.158,-0.265l0.159,-0.263l0.16,-0.262l0.163,-0.262l0.163,-0.26l0.165,-0.259l0.167,-0.258l0.168,-0.257l0.17,-0.256l0.171,-0.255l0.173,-0.254l0.174,-0.253l0.175,-0.252l0.177,-0.25l0.179,-0.249l0.18,-0.249l0.182,-0.247l0.182,-0.246l0.185,-0.245l0.186,-0.244l0.187,-0.242l0.188,-0.242l0.19,-0.24l0.192,-0.239l0.193,-0.238l0.194,-0.237l0.196,-0.235l0.197,-0.235l0.198,-0.233l0.2,-0.232l0.201,-0.231l0.202,-0.229l0.204,-0.229l0.205,-0.227l0.207,-0.226l0.208,-0.224l0.209,-0.224l0.211,-0.222l0.211,-0.221l0.213,-0.219l0.215,-0.218l0.216,-0.217l0.217,-0.216l0.218,-0.215l0.219,-0.213l0.221,-0.211l0.222,-0.211l0.224,-0.209l0.224,-0.208l0.226,-0.207l0.227,-0.205l0.229,-0.204l0.229,-0.202l0.231,-0.201l0.232,-0.2l0.233,-0.198l0.235,-0.197l0.235,-0.196l0.237,-0.194l0.238,-0.193l0.239,-0.192l0.24,-0.19l0.242,-0.188l0.242,-0.187l0.244,-0.186l0.245,-0.185l0.246,-0.182l0.247,-0.182l0.249,-0.18l0.249,-0.179l0.25,-0.177l0.252,-0.175l0.253,-0.174l0.254,-0.173l0.255,-0.171l0.256,-0.17l0.257,-0.168l0.258,-0.167l0.259,-0.165l0.26,-0.163l0.262,-0.163l0.262,-0.16l0.263,-0.159l0.265,-0.158l0.265,-0.156l0.267,-0.154l0.267,-0.153l0.269,-0.151l0.269,-0.15l0.271,-0.148l0.271,-0.146l0.273,-0.145l0.273,-0.143l0.274,-0.142l0.276,-0.14l0.276,-0.139l0.277,-0.136l0.279,-0.136l0.279,-0.133l0.28,-0.132l0.281,-0.13l0.282,-0.129l0.283,-0.127l0.283,-0.125l0.285,-0.124l0.285,-0.122l0.287,-0.12l0.287,-0.118l0.288,-0.117l0.289,-0.115l0.29,-0.113l0.291,-0.112l0.292,-0.11l0.292,-0.108l0.293,-0.107l0.294,-0.104l0.295,-0.103l0.296,-0.101l0.297,-0.1l0.297,-0.098l0.298,-0.095l0.299,-0.095l0.3,-0.092l0.3,-0.09l0.302,-0.089l0.302,-0.087l0.303,-0.085l0.303,-0.083l0.305,-0.082l0.305,-0.079l0.305,-0.078l0.307,-0.076l0.307,-0.074l0.308,-0.072l0.309,-0.07l0.309,-0.069l0.31,-0.066l0.311,-0.065l0.312,-0.063l0.312,-0.061l0.313,-0.059l0.313,-0.057l0.314,-0.055l0.315,-0.053l0.315,-0.052l0.317,-0.049l0.316,-0.047l0.318,-0.046l0.318,-0.043l0.318,-0.042l0.319,-0.04l0.32,-0.037l0.321,-0.036l0.321,-0.033l0.321,-0.032l0.322,-0.03l0.323,-0.028l0.323,-0.025l0.324,-0.024l0.325,-0.021l0.325,-0.02l0.325,-0.018l0.326,-0.015l0.327,-0.014l0.327,-0.011l0.328,-0.009l0.328,-0.008l0.328,-0.005l0.329,-0.003l0.33,-0.001l0.33,0.001Zm-0.631,4.5l-0.301,0.003l-0.3,0.005l-0.299,0.006l-0.299,0.009l-0.299,0.01l-0.298,0.012l-0.298,0.015l-0.297,0.016l-0.296,0.018l-0.296,0.019l-0.296,0.022l-0.295,0.023l-0.294,0.025l-0.294,0.028l-0.293,0.028l-0.293,0.031l-0.292,0.033l-0.292,0.034l-0.29,0.036l-0.291,0.038l-0.29,0.04l-0.289,0.041l-0.289,0.043l-0.288,0.045l-0.288,0.047l-0.287,0.049l-0.286,0.05l-0.286,0.052l-0.285,0.054l-0.284,0.055l-0.284,0.057l-0.283,0.059l-0.283,0.061l-0.281,0.062l-0.282,0.064l-0.28,0.066l-0.28,0.068l-0.279,0.069l-0.279,0.071l-0.278,0.072l-0.277,0.074l-0.277,0.076l-0.276,0.078l-0.275,0.079l-0.274,0.081l-0.274,0.082l-0.273,0.084l-0.273,0.086l-0.271,0.087l-0.271,0.089l-0.27,0.091l-0.27,0.092l-0.268,0.094l-0.269,0.095l-0.267,0.097l-0.266,0.099l-0.266,0.1l-0.265,0.101l-0.264,0.104l-0.263,0.105l-0.263,0.106l-0.261,0.108l-0.261,0.11l-0.261,0.111l-0.259,0.112l-0.259,0.114l-0.257,0.116l-0.257,0.117l-0.256,0.119l-0.255,0.12l-0.255,0.122l-0.254,0.123l-0.252,0.125l-0.252,0.126l-0.251,0.128l-0.25,0.129l-0.249,0.13l-0.249,0.132l-0.247,0.134l-0.247,0.135l-0.246,0.137l-0.244,0.137l-0.244,0.14l-0.243,0.14l-0.242,0.143l-0.241,0.143l-0.24,0.145l-0.24,0.147l-0.238,0.147l-0.237,0.15l-0.237,0.15l-0.235,0.152l-0.235,0.154l-0.233,0.154l-0.232,0.156l-0.232,0.158l-0.231,0.159l-0.229,0.16l-0.229,0.161l-0.227,0.163l-0.227,0.164l-0.225,0.166l-0.224,0.167l-0.224,0.168l-0.222,0.169l-0.222,0.171l-0.22,0.172l-0.219,0.174l-0.218,0.174l-0.217,0.176l-0.216,0.177l-0.215,0.179l-0.214,0.18l-0.213,0.181l-0.211,0.182l-0.211,0.184l-0.209,0.184l-0.209,0.186l-0.207,0.187l-0.206,0.189l-0.205,0.189l-0.204,0.191l-0.203,0.193l-0.201,0.193l-0.2,0.194l-0.199,0.196l-0.199,0.197l-0.196,0.197l-0.196,0.2l-0.194,0.2l-0.194,0.202l-0.192,0.202l-0.19,0.204l-0.19,0.205l-0.189,0.206l-0.187,0.207l-0.186,0.208l-0.185,0.21l-0.183,0.21l-0.182,0.212l-0.182,0.213l-0.179,0.214l-0.178,0.214l-0.177,0.216l-0.177,0.218l-0.174,0.218l-0.174,0.219l-0.172,0.22l-0.171,0.222l-0.169,0.222l-0.168,0.223l-0.167,0.225l-0.166,0.226l-0.164,0.226l-0.163,0.227l-0.161,0.229l-0.16,0.229l-0.159,0.231l-0.158,0.232l-0.156,0.232l-0.154,0.233l-0.154,0.235l-0.152,0.235l-0.15,0.237l-0.15,0.237l-0.147,0.238l-0.147,0.24l-0.145,0.24l-0.143,0.241l-0.143,0.242l-0.14,0.243l-0.14,0.243l-0.137,0.245l-0.137,0.246l-0.135,0.247l-0.133,0.247l-0.133,0.248l-0.13,0.25l-0.129,0.25l-0.128,0.251l-0.126,0.252l-0.125,0.253l-0.123,0.253l-0.122,0.254l-0.12,0.256l-0.119,0.256l-0.117,0.256l-0.116,0.258l-0.114,0.259l-0.112,0.259l-0.111,0.261l-0.11,0.261l-0.108,0.261l-0.106,0.263l-0.105,0.263l-0.103,0.264l-0.102,0.265l-0.1,0.266l-0.099,0.266l-0.097,0.268l-0.095,0.268l-0.094,0.268l-0.092,0.269l-0.091,0.271l-0.089,0.271l-0.087,0.272l-0.086,0.272l-0.084,0.272l-0.082,0.274l-0.081,0.275l-0.079,0.275l-0.078,0.276l-0.076,0.277l-0.074,0.277l-0.072,0.278l-0.071,0.279l-0.069,0.279l-0.068,0.28l-0.066,0.28l-0.064,0.282l-0.062,0.281l-0.061,0.283l-0.059,0.283l-0.057,0.284l-0.055,0.284l-0.054,0.285l-0.052,0.286l-0.05,0.287l-0.049,0.286l-0.047,0.288l-0.045,0.288l-0.043,0.289l-0.041,0.289l-0.04,0.29l-0.038,0.291l-0.036,0.29l-0.034,0.292l-0.033,0.292l-0.031,0.293l-0.028,0.293l-0.027,0.294l-0.026,0.294l-0.023,0.295l-0.022,0.296l-0.019,0.296l-0.018,0.296l-0.016,0.297l-0.015,0.298l-0.012,0.298l-0.01,0.299l-0.009,0.299l-0.006,0.299l-0.005,0.301l-0.003,0.3l-0.001,0.301l0.001,0.301l0.003,0.3l0.005,0.301l0.006,0.299l0.009,0.299l0.01,0.299l0.012,0.298l0.015,0.298l0.016,0.297l0.018,0.296l0.019,0.296l0.022,0.296l0.023,0.295l0.026,0.294l0.027,0.294l0.028,0.293l0.031,0.293l0.033,0.292l0.034,0.292l0.036,0.29l0.038,0.291l0.04,0.29l0.041,0.289l0.043,0.289l0.045,0.288l0.047,0.288l0.049,0.286l0.05,0.287l0.052,0.286l0.054,0.285l0.055,0.284l0.057,0.284l0.059,0.283l0.061,0.283l0.062,0.281l0.064,0.282l0.066,0.28l0.068,0.28l0.069,0.279l0.071,0.279l0.072,0.278l0.074,0.277l0.076,0.277l0.078,0.276l0.079,0.275l0.081,0.275l0.082,0.274l0.084,0.272l0.086,0.272l0.087,0.272l0.089,0.271l0.091,0.271l0.092,0.269l0.094,0.268l0.095,0.268l0.097,0.268l0.099,0.266l0.1,0.266l0.102,0.265l0.103,0.264l0.105,0.263l0.106,0.263l0.108,0.261l0.11,0.261l0.111,0.261l0.112,0.259l0.114,0.259l0.116,0.258l0.117,0.256l0.119,0.256l0.12,0.256l0.122,0.254l0.123,0.253l0.125,0.253l0.126,0.252l0.128,0.251l0.129,0.25l0.13,0.25l0.133,0.248l0.133,0.247l0.135,0.247l0.137,0.246l0.137,0.245l0.14,0.243l0.14,0.243l0.143,0.242l0.143,0.241l0.145,0.24l0.147,0.24l0.147,0.238l0.15,0.237l0.15,0.237l0.152,0.235l0.154,0.235l0.154,0.233l0.156,0.232l0.158,0.232l0.159,0.231l0.16,0.229l0.161,0.229l0.163,0.227l0.164,0.226l0.166,0.226l0.167,0.225l0.168,0.223l0.169,0.222l0.171,0.222l0.172,0.22l0.173,0.219l0.175,0.218l0.177,0.218l0.177,0.216l0.178,0.214l0.179,0.214l0.182,0.213l0.182,0.212l0.183,0.21l0.185,0.209l0.186,0.209l0.187,0.207l0.189,0.206l0.19,0.205l0.19,0.204l0.192,0.202l0.194,0.202l0.194,0.2l0.196,0.2l0.196,0.197l0.199,0.197l0.199,0.196l0.2,0.194l0.201,0.193l0.203,0.193l0.204,0.191l0.205,0.189l0.206,0.189l0.207,0.187l0.208,0.186l0.21,0.184l0.211,0.184l0.211,0.182l0.213,0.181l0.214,0.18l0.215,0.179l0.216,0.177l0.217,0.176l0.218,0.174l0.219,0.174l0.22,0.172l0.222,0.171l0.222,0.169l0.224,0.168l0.224,0.167l0.225,0.166l0.227,0.164l0.227,0.163l0.229,0.161l0.229,0.16l0.231,0.159l0.232,0.158l0.232,0.156l0.233,0.154l0.235,0.154l0.235,0.152l0.237,0.15l0.237,0.15l0.238,0.147l0.24,0.147l0.24,0.145l0.241,0.143l0.242,0.143l0.243,0.14l0.244,0.14l0.244,0.137l0.246,0.137l0.247,0.135l0.247,0.134l0.249,0.132l0.249,0.13l0.25,0.129l0.251,0.128l0.252,0.126l0.252,0.125l0.254,0.123l0.255,0.122l0.255,0.12l0.256,0.119l0.257,0.117l0.257,0.116l0.259,0.114l0.259,0.112l0.261,0.111l0.261,0.11l0.261,0.108l0.263,0.106l0.263,0.105l0.265,0.104l0.264,0.101l0.266,0.1l0.266,0.099l0.267,0.097l0.269,0.095l0.268,0.094l0.27,0.092l0.27,0.091l0.271,0.089l0.271,0.087l0.273,0.086l0.273,0.084l0.274,0.082l0.274,0.081l0.275,0.079l0.276,0.078l0.277,0.076l0.277,0.074l0.278,0.072l0.279,0.071l0.279,0.069l0.28,0.068l0.28,0.066l0.282,0.064l0.281,0.062l0.283,0.061l0.283,0.059l0.284,0.057l0.284,0.055l0.285,0.054l0.286,0.052l0.286,0.05l0.287,0.049l0.288,0.047l0.288,0.045l0.289,0.043l0.289,0.041l0.29,0.04l0.29,0.038l0.291,0.036l0.292,0.034l0.292,0.033l0.293,0.031l0.293,0.028l0.294,0.028l0.294,0.025l0.295,0.023l0.296,0.022l0.296,0.019l0.296,0.018l0.297,0.016l0.298,0.015l0.298,0.012l0.299,0.01l0.299,0.009l0.299,0.006l0.3,0.005l0.301,0.003l0.301,0.001l0.301,-0.001l0.301,-0.003l0.3,-0.005l0.299,-0.006l0.299,-0.009l0.299,-0.01l0.298,-0.012l0.298,-0.015l0.297,-0.016l0.296,-0.018l0.296,-0.019l0.296,-0.022l0.295,-0.023l0.294,-0.025l0.294,-0.028l0.293,-0.028l0.293,-0.031l0.292,-0.033l0.292,-0.034l0.291,-0.036l0.29,-0.038l0.29,-0.04l0.289,-0.041l0.289,-0.043l0.288,-0.045l0.288,-0.047l0.287,-0.049l0.286,-0.05l0.285,-0.052l0.286,-0.054l0.284,-0.055l0.284,-0.057l0.283,-0.059l0.283,-0.061l0.281,-0.062l0.282,-0.064l0.28,-0.066l0.28,-0.068l0.279,-0.069l0.279,-0.071l0.278,-0.072l0.277,-0.074l0.277,-0.076l0.276,-0.078l0.275,-0.079l0.274,-0.081l0.274,-0.082l0.273,-0.084l0.273,-0.086l0.271,-0.087l0.271,-0.089l0.27,-0.091l0.27,-0.092l0.268,-0.094l0.268,-0.095l0.268,-0.097l0.266,-0.099l0.266,-0.1l0.264,-0.101l0.265,-0.104l0.263,-0.105l0.263,-0.106l0.261,-0.108l0.261,-0.11l0.261,-0.111l0.259,-0.112l0.259,-0.114l0.257,-0.116l0.257,-0.117l0.256,-0.119l0.255,-0.12l0.255,-0.122l0.254,-0.123l0.252,-0.125l0.252,-0.126l0.251,-0.128l0.25,-0.129l0.25,-0.13l0.248,-0.132l0.247,-0.134l0.247,-0.135l0.246,-0.136l0.244,-0.138l0.244,-0.14l0.243,-0.14l0.242,-0.143l0.241,-0.143l0.24,-0.145l0.24,-0.147l0.238,-0.147l0.237,-0.15l0.237,-0.15l0.235,-0.152l0.235,-0.154l0.233,-0.154l0.233,-0.156l0.231,-0.158l0.23,-0.159l0.23,-0.16l0.229,-0.161l0.227,-0.163l0.227,-0.164l0.225,-0.166l0.225,-0.167l0.223,-0.168l0.222,-0.17l0.222,-0.17l0.22,-0.172l0.219,-0.174l0.218,-0.174l0.217,-0.176l0.216,-0.178l0.215,-0.178l0.214,-0.18l0.213,-0.181l0.211,-0.182l0.211,-0.184l0.21,-0.184l0.208,-0.186l0.207,-0.187l0.206,-0.189l0.205,-0.189l0.204,-0.191l0.203,-0.193l0.201,-0.193l0.2,-0.194l0.199,-0.196l0.199,-0.197l0.196,-0.198l0.196,-0.199l0.194,-0.2l0.194,-0.202l0.192,-0.202l0.19,-0.204l0.19,-0.205l0.189,-0.206l0.187,-0.207l0.186,-0.209l0.185,-0.209l0.183,-0.211l0.182,-0.211l0.181,-0.213l0.18,-0.214l0.178,-0.214l0.178,-0.217l0.176,-0.217l0.174,-0.218l0.174,-0.219l0.172,-0.22l0.171,-0.222l0.169,-0.222l0.168,-0.224l0.167,-0.224l0.166,-0.225l0.164,-0.227l0.163,-0.227l0.161,-0.229l0.16,-0.229l0.159,-0.231l0.158,-0.232l0.156,-0.232l0.154,-0.233l0.154,-0.235l0.152,-0.235l0.15,-0.237l0.15,-0.237l0.147,-0.238l0.147,-0.24l0.145,-0.24l0.143,-0.241l0.143,-0.242l0.14,-0.243l0.14,-0.244l0.138,-0.244l0.136,-0.246l0.135,-0.246l0.133,-0.248l0.133,-0.249l0.13,-0.249l0.129,-0.25l0.128,-0.251l0.126,-0.252l0.125,-0.253l0.123,-0.253l0.122,-0.254l0.12,-0.255l0.119,-0.257l0.117,-0.256l0.115,-0.258l0.115,-0.259l0.112,-0.259l0.111,-0.261l0.11,-0.261l0.108,-0.261l0.106,-0.263l0.105,-0.263l0.103,-0.264l0.102,-0.265l0.101,-0.266l0.098,-0.266l0.097,-0.267l0.095,-0.269l0.094,-0.268l0.092,-0.269l0.091,-0.271l0.089,-0.271l0.087,-0.272l0.086,-0.272l0.084,-0.273l0.083,-0.274l0.08,-0.274l0.079,-0.275l0.078,-0.276l0.076,-0.277l0.074,-0.277l0.072,-0.278l0.071,-0.279l0.069,-0.279l0.068,-0.28l0.066,-0.28l0.064,-0.281l0.062,-0.282l0.061,-0.283l0.059,-0.283l0.057,-0.284l0.055,-0.284l0.054,-0.285l0.052,-0.287l0.05,-0.286l0.049,-0.286l0.047,-0.288l0.045,-0.288l0.043,-0.289l0.041,-0.289l0.04,-0.29l0.038,-0.291l0.036,-0.29l0.034,-0.292l0.033,-0.292l0.031,-0.293l0.028,-0.293l0.027,-0.294l0.026,-0.294l0.023,-0.295l0.022,-0.296l0.019,-0.296l0.018,-0.297l0.016,-0.296l0.014,-0.298l0.013,-0.298l0.01,-0.299l0.009,-0.298l0.006,-0.3l0.005,-0.301l0.003,-0.3l0.001,-0.301l-0.001,-0.301l-0.003,-0.3l-0.005,-0.301l-0.006,-0.3l-0.009,-0.298l-0.01,-0.299l-0.013,-0.298l-0.014,-0.298l-0.016,-0.296l-0.018,-0.297l-0.019,-0.296l-0.022,-0.296l-0.023,-0.295l-0.026,-0.294l-0.027,-0.294l-0.028,-0.293l-0.031,-0.293l-0.033,-0.292l-0.034,-0.292l-0.036,-0.29l-0.038,-0.291l-0.04,-0.29l-0.041,-0.289l-0.043,-0.289l-0.045,-0.288l-0.047,-0.288l-0.049,-0.286l-0.05,-0.286l-0.052,-0.287l-0.054,-0.285l-0.055,-0.284l-0.057,-0.284l-0.059,-0.283l-0.061,-0.283l-0.062,-0.282l-0.064,-0.281l-0.066,-0.28l-0.068,-0.28l-0.069,-0.279l-0.071,-0.279l-0.072,-0.278l-0.074,-0.277l-0.076,-0.277l-0.078,-0.276l-0.079,-0.275l-0.08,-0.274l-0.083,-0.274l-0.084,-0.273l-0.086,-0.272l-0.087,-0.272l-0.089,-0.271l-0.091,-0.271l-0.092,-0.269l-0.094,-0.268l-0.095,-0.269l-0.097,-0.267l-0.098,-0.266l-0.101,-0.266l-0.102,-0.265l-0.103,-0.264l-0.105,-0.263l-0.106,-0.263l-0.108,-0.261l-0.11,-0.261l-0.111,-0.261l-0.112,-0.259l-0.115,-0.259l-0.115,-0.258l-0.117,-0.256l-0.119,-0.257l-0.12,-0.255l-0.122,-0.254l-0.123,-0.253l-0.125,-0.253l-0.126,-0.252l-0.128,-0.251l-0.129,-0.25l-0.13,-0.249l-0.133,-0.249l-0.133,-0.248l-0.135,-0.246l-0.136,-0.246l-0.138,-0.244l-0.14,-0.244l-0.14,-0.243l-0.143,-0.242l-0.143,-0.241l-0.145,-0.24l-0.147,-0.24l-0.147,-0.238l-0.15,-0.237l-0.15,-0.237l-0.152,-0.235l-0.154,-0.235l-0.154,-0.233l-0.156,-0.232l-0.158,-0.232l-0.159,-0.231l-0.16,-0.229l-0.161,-0.229l-0.163,-0.227l-0.165,-0.227l-0.165,-0.225l-0.167,-0.224l-0.168,-0.224l-0.169,-0.222l-0.171,-0.222l-0.172,-0.22l-0.174,-0.219l-0.174,-0.218l-0.176,-0.217l-0.178,-0.217l-0.178,-0.214l-0.18,-0.214l-0.181,-0.213l-0.182,-0.211l-0.183,-0.211l-0.185,-0.21l-0.186,-0.208l-0.187,-0.207l-0.189,-0.206l-0.19,-0.205l-0.19,-0.204l-0.192,-0.202l-0.194,-0.202l-0.194,-0.2l-0.196,-0.199l-0.196,-0.198l-0.199,-0.197l-0.199,-0.196l-0.2,-0.194l-0.201,-0.193l-0.203,-0.193l-0.204,-0.191l-0.205,-0.189l-0.206,-0.189l-0.207,-0.187l-0.209,-0.186l-0.209,-0.184l-0.211,-0.184l-0.211,-0.182l-0.213,-0.181l-0.214,-0.18l-0.215,-0.178l-0.216,-0.178l-0.217,-0.176l-0.218,-0.174l-0.219,-0.174l-0.22,-0.172l-0.222,-0.17l-0.222,-0.17l-0.223,-0.168l-0.225,-0.167l-0.225,-0.166l-0.227,-0.164l-0.227,-0.163l-0.229,-0.161l-0.23,-0.16l-0.23,-0.159l-0.231,-0.158l-0.233,-0.156l-0.233,-0.154l-0.235,-0.154l-0.235,-0.152l-0.237,-0.15l-0.237,-0.15l-0.238,-0.147l-0.24,-0.147l-0.24,-0.145l-0.241,-0.143l-0.242,-0.143l-0.243,-0.14l-0.244,-0.14l-0.244,-0.138l-0.246,-0.136l-0.247,-0.135l-0.247,-0.134l-0.248,-0.132l-0.25,-0.13l-0.25,-0.129l-0.251,-0.128l-0.252,-0.126l-0.252,-0.125l-0.254,-0.123l-0.255,-0.122l-0.255,-0.12l-0.256,-0.119l-0.257,-0.117l-0.257,-0.116l-0.259,-0.114l-0.259,-0.112l-0.261,-0.111l-0.261,-0.11l-0.261,-0.108l-0.263,-0.106l-0.263,-0.105l-0.264,-0.104l-0.265,-0.101l-0.266,-0.1l-0.266,-0.099l-0.268,-0.097l-0.268,-0.095l-0.268,-0.094l-0.27,-0.092l-0.27,-0.091l-0.271,-0.089l-0.271,-0.087l-0.273,-0.086l-0.273,-0.084l-0.274,-0.082l-0.274,-0.081l-0.275,-0.079l-0.276,-0.078l-0.277,-0.076l-0.277,-0.074l-0.278,-0.072l-0.279,-0.071l-0.279,-0.069l-0.28,-0.068l-0.28,-0.066l-0.282,-0.064l-0.281,-0.062l-0.283,-0.061l-0.283,-0.059l-0.284,-0.057l-0.284,-0.055l-0.286,-0.054l-0.285,-0.052l-0.286,-0.05l-0.287,-0.049l-0.288,-0.047l-0.288,-0.045l-0.289,-0.043l-0.289,-0.041l-0.29,-0.04l-0.29,-0.038l-0.291,-0.036l-0.292,-0.034l-0.292,-0.033l-0.293,-0.031l-0.293,-0.028l-0.294,-0.028l-0.294,-0.025l-0.295,-0.023l-0.296,-0.022l-0.296,-0.019l-0.296,-0.018l-0.297,-0.016l-0.298,-0.015l-0.298,-0.012l-0.299,-0.01l-0.299,-0.009l-0.299,-0.006l-0.3,-0.005l-0.301,-0.003l-0.301,-0.001l-0.301,0.001Z" style="fill:#fff;fill-opacity:0.44;"/><rect x="256" y="0" width="256" height="128" style="fill:none;"/><path d="M425,28c0,0 -16.643,21.299 -32.109,25.114c-25,6.166 -47.076,7.36 -69.891,2.886c-13.541,-2.655 -43,-19 -43,-19c15.751,19.689 14.412,35.921 2,52c0,0 29.551,-15.996 42,-19c22.683,-5.473 43.764,-3.836 69.098,1.164c16.899,3.335 32.902,28.836 32.902,28.836c-23.201,-22.566 -15.022,-54.055 -1,-72Z" style="fill:#fff;fill-opacity:0.44;"/></g><g id="Gate-Mirror1" serif:id="Gate Mirror"><circle cx="51" cy="64" r="51" style="fill:#fff;fill-opacity:0.16;"/><path d="M51.33,13.001l0.329,0.003l0.328,0.005l0.328,0.008l0.328,0.009l0.327,0.011l0.327,0.014l0.326,0.015l0.325,0.018l0.325,0.02l0.325,0.021l0.324,0.024l0.323,0.025l0.323,0.028l0.322,0.03l0.321,0.032l0.321,0.033l0.321,0.036l0.32,0.037l0.319,0.04l0.318,0.042l0.318,0.043l0.318,0.046l0.316,0.047l0.317,0.049l0.315,0.052l0.315,0.053l0.314,0.055l0.313,0.057l0.313,0.059l0.312,0.061l0.312,0.063l0.311,0.065l0.31,0.066l0.309,0.069l0.309,0.07l0.308,0.072l0.307,0.074l0.307,0.076l0.305,0.078l0.305,0.079l0.305,0.082l0.303,0.083l0.303,0.085l0.302,0.087l0.302,0.089l0.3,0.09l0.3,0.092l0.299,0.095l0.298,0.095l0.297,0.098l0.297,0.1l0.296,0.101l0.295,0.103l0.294,0.104l0.293,0.107l0.292,0.108l0.292,0.11l0.291,0.112l0.29,0.113l0.289,0.115l0.288,0.117l0.287,0.118l0.287,0.12l0.285,0.122l0.285,0.124l0.283,0.125l0.283,0.127l0.282,0.129l0.281,0.13l0.28,0.132l0.279,0.133l0.279,0.136l0.277,0.136l0.276,0.139l0.276,0.14l0.274,0.142l0.273,0.143l0.273,0.145l0.271,0.146l0.271,0.148l0.269,0.15l0.269,0.151l0.267,0.153l0.267,0.154l0.265,0.156l0.265,0.158l0.263,0.159l0.262,0.16l0.262,0.163l0.26,0.163l0.259,0.165l0.258,0.167l0.257,0.168l0.256,0.17l0.255,0.171l0.254,0.173l0.253,0.174l0.252,0.175l0.25,0.177l0.249,0.179l0.249,0.18l0.247,0.182l0.246,0.182l0.245,0.185l0.244,0.186l0.242,0.187l0.242,0.188l0.24,0.19l0.239,0.192l0.238,0.193l0.237,0.194l0.235,0.196l0.235,0.197l0.233,0.198l0.232,0.2l0.231,0.201l0.229,0.202l0.229,0.204l0.227,0.205l0.226,0.207l0.224,0.208l0.224,0.209l0.222,0.211l0.221,0.211l0.219,0.213l0.218,0.215l0.217,0.216l0.216,0.217l0.215,0.218l0.213,0.219l0.211,0.221l0.211,0.222l0.209,0.224l0.208,0.224l0.207,0.226l0.205,0.227l0.204,0.229l0.202,0.229l0.201,0.231l0.2,0.232l0.198,0.233l0.197,0.235l0.196,0.235l0.194,0.237l0.193,0.238l0.192,0.239l0.19,0.24l0.188,0.242l0.187,0.242l0.186,0.244l0.185,0.245l0.182,0.246l0.182,0.247l0.18,0.249l0.179,0.249l0.177,0.25l0.175,0.252l0.174,0.253l0.173,0.254l0.171,0.255l0.17,0.256l0.168,0.257l0.167,0.258l0.165,0.259l0.163,0.26l0.163,0.262l0.16,0.262l0.159,0.263l0.158,0.265l0.156,0.265l0.154,0.267l0.153,0.267l0.151,0.269l0.15,0.269l0.148,0.271l0.146,0.271l0.145,0.273l0.143,0.273l0.142,0.274l0.14,0.276l0.139,0.276l0.136,0.277l0.136,0.279l0.133,0.279l0.132,0.28l0.13,0.281l0.129,0.282l0.127,0.283l0.125,0.283l0.124,0.285l0.122,0.285l0.12,0.287l0.118,0.287l0.117,0.288l0.115,0.289l0.113,0.29l0.112,0.291l0.11,0.292l0.108,0.292l0.107,0.293l0.104,0.294l0.103,0.295l0.101,0.296l0.1,0.297l0.098,0.297l0.095,0.298l0.095,0.299l0.092,0.3l0.09,0.3l0.089,0.302l0.087,0.302l0.085,0.303l0.083,0.303l0.082,0.305l0.079,0.305l0.078,0.305l0.076,0.307l0.074,0.307l0.072,0.308l0.07,0.309l0.069,0.309l0.066,0.31l0.065,0.311l0.063,0.312l0.061,0.312l0.059,0.313l0.057,0.313l0.055,0.314l0.053,0.315l0.052,0.315l0.049,0.317l0.047,0.316l0.046,0.318l0.043,0.318l0.042,0.318l0.04,0.319l0.037,0.32l0.036,0.321l0.033,0.321l0.032,0.321l0.03,0.322l0.028,0.323l0.025,0.323l0.024,0.324l0.021,0.325l0.02,0.325l0.018,0.325l0.015,0.326l0.014,0.327l0.011,0.327l0.009,0.328l0.008,0.328l0.005,0.328l0.003,0.329l0.001,0.33l-0.001,0.33l-0.003,0.329l-0.005,0.328l-0.008,0.328l-0.009,0.328l-0.011,0.327l-0.014,0.327l-0.015,0.326l-0.018,0.325l-0.02,0.325l-0.021,0.325l-0.024,0.324l-0.025,0.323l-0.028,0.323l-0.03,0.322l-0.032,0.321l-0.033,0.321l-0.036,0.321l-0.037,0.32l-0.04,0.319l-0.042,0.318l-0.043,0.318l-0.046,0.318l-0.047,0.316l-0.049,0.317l-0.052,0.315l-0.053,0.315l-0.055,0.314l-0.057,0.313l-0.059,0.313l-0.061,0.312l-0.063,0.312l-0.065,0.311l-0.066,0.31l-0.069,0.309l-0.07,0.309l-0.072,0.308l-0.074,0.307l-0.076,0.307l-0.078,0.305l-0.079,0.305l-0.082,0.305l-0.083,0.303l-0.085,0.303l-0.087,0.302l-0.089,0.302l-0.09,0.3l-0.092,0.3l-0.095,0.299l-0.095,0.298l-0.098,0.297l-0.1,0.297l-0.101,0.296l-0.103,0.295l-0.104,0.294l-0.107,0.293l-0.108,0.292l-0.11,0.292l-0.112,0.291l-0.113,0.29l-0.115,0.289l-0.117,0.288l-0.118,0.287l-0.12,0.287l-0.122,0.285l-0.124,0.285l-0.125,0.283l-0.127,0.283l-0.129,0.282l-0.13,0.281l-0.132,0.28l-0.133,0.279l-0.136,0.279l-0.136,0.277l-0.139,0.276l-0.14,0.276l-0.142,0.274l-0.143,0.273l-0.145,0.273l-0.146,0.271l-0.148,0.271l-0.15,0.269l-0.151,0.269l-0.153,0.267l-0.154,0.267l-0.156,0.265l-0.158,0.265l-0.159,0.263l-0.16,0.262l-0.163,0.262l-0.163,0.26l-0.165,0.259l-0.167,0.258l-0.168,0.257l-0.17,0.256l-0.171,0.255l-0.173,0.254l-0.174,0.253l-0.175,0.252l-0.177,0.25l-0.179,0.249l-0.18,0.249l-0.182,0.247l-0.182,0.246l-0.185,0.245l-0.186,0.244l-0.187,0.242l-0.188,0.242l-0.19,0.24l-0.192,0.239l-0.193,0.238l-0.194,0.237l-0.196,0.235l-0.197,0.235l-0.198,0.233l-0.2,0.232l-0.201,0.231l-0.202,0.229l-0.204,0.229l-0.205,0.227l-0.207,0.226l-0.208,0.224l-0.209,0.224l-0.211,0.222l-0.211,0.221l-0.213,0.219l-0.215,0.218l-0.216,0.217l-0.217,0.216l-0.218,0.215l-0.219,0.213l-0.221,0.211l-0.222,0.211l-0.224,0.209l-0.224,0.208l-0.226,0.207l-0.227,0.205l-0.229,0.204l-0.229,0.202l-0.231,0.201l-0.232,0.2l-0.233,0.198l-0.235,0.197l-0.235,0.196l-0.237,0.194l-0.238,0.193l-0.239,0.192l-0.24,0.19l-0.242,0.188l-0.242,0.187l-0.244,0.186l-0.245,0.185l-0.246,0.182l-0.247,0.182l-0.249,0.18l-0.249,0.179l-0.25,0.177l-0.252,0.175l-0.253,0.174l-0.254,0.173l-0.255,0.171l-0.256,0.17l-0.257,0.168l-0.258,0.167l-0.259,0.165l-0.26,0.163l-0.262,0.163l-0.262,0.16l-0.263,0.159l-0.265,0.158l-0.265,0.156l-0.267,0.154l-0.267,0.153l-0.269,0.151l-0.269,0.15l-0.271,0.148l-0.271,0.146l-0.273,0.145l-0.273,0.143l-0.274,0.142l-0.276,0.14l-0.276,0.139l-0.277,0.136l-0.279,0.136l-0.279,0.133l-0.28,0.132l-0.281,0.13l-0.282,0.129l-0.283,0.127l-0.283,0.125l-0.285,0.124l-0.285,0.122l-0.287,0.12l-0.287,0.118l-0.288,0.117l-0.289,0.115l-0.29,0.113l-0.291,0.112l-0.292,0.11l-0.292,0.108l-0.293,0.107l-0.294,0.104l-0.295,0.103l-0.296,0.101l-0.297,0.1l-0.297,0.098l-0.298,0.095l-0.299,0.095l-0.3,0.092l-0.3,0.09l-0.302,0.089l-0.302,0.087l-0.303,0.085l-0.303,0.083l-0.305,0.082l-0.305,0.079l-0.305,0.078l-0.307,0.076l-0.307,0.074l-0.308,0.072l-0.309,0.07l-0.309,0.069l-0.31,0.066l-0.311,0.065l-0.312,0.063l-0.312,0.061l-0.313,0.059l-0.313,0.057l-0.314,0.055l-0.315,0.053l-0.315,0.052l-0.317,0.049l-0.316,0.047l-0.318,0.046l-0.318,0.043l-0.318,0.042l-0.319,0.04l-0.32,0.037l-0.321,0.036l-0.321,0.033l-0.321,0.032l-0.322,0.03l-0.323,0.028l-0.323,0.025l-0.324,0.024l-0.325,0.021l-0.325,0.02l-0.325,0.018l-0.326,0.015l-0.327,0.014l-0.327,0.011l-0.328,0.009l-0.328,0.008l-0.328,0.005l-0.329,0.003l-0.33,0.001l-0.33,-0.001l-0.329,-0.003l-0.328,-0.005l-0.328,-0.008l-0.328,-0.009l-0.327,-0.011l-0.327,-0.014l-0.326,-0.015l-0.325,-0.018l-0.325,-0.02l-0.325,-0.021l-0.324,-0.024l-0.323,-0.025l-0.323,-0.028l-0.322,-0.03l-0.321,-0.032l-0.321,-0.033l-0.321,-0.036l-0.32,-0.037l-0.319,-0.04l-0.318,-0.042l-0.318,-0.043l-0.318,-0.046l-0.316,-0.047l-0.317,-0.049l-0.315,-0.052l-0.315,-0.053l-0.314,-0.055l-0.313,-0.057l-0.313,-0.059l-0.312,-0.061l-0.312,-0.063l-0.311,-0.065l-0.31,-0.066l-0.309,-0.069l-0.309,-0.07l-0.308,-0.072l-0.307,-0.074l-0.307,-0.076l-0.305,-0.078l-0.305,-0.079l-0.305,-0.082l-0.303,-0.083l-0.303,-0.085l-0.302,-0.087l-0.302,-0.089l-0.3,-0.09l-0.3,-0.092l-0.299,-0.095l-0.298,-0.095l-0.297,-0.098l-0.297,-0.1l-0.296,-0.101l-0.295,-0.103l-0.294,-0.104l-0.293,-0.107l-0.292,-0.108l-0.292,-0.11l-0.291,-0.112l-0.29,-0.113l-0.289,-0.115l-0.288,-0.117l-0.287,-0.118l-0.287,-0.12l-0.285,-0.122l-0.285,-0.124l-0.283,-0.125l-0.283,-0.127l-0.282,-0.129l-0.281,-0.13l-0.28,-0.132l-0.279,-0.133l-0.279,-0.136l-0.277,-0.136l-0.276,-0.139l-0.276,-0.14l-0.274,-0.142l-0.273,-0.143l-0.273,-0.145l-0.271,-0.146l-0.271,-0.148l-0.269,-0.15l-0.269,-0.151l-0.267,-0.153l-0.267,-0.154l-0.265,-0.156l-0.265,-0.158l-0.263,-0.159l-0.262,-0.16l-0.262,-0.163l-0.26,-0.163l-0.259,-0.165l-0.258,-0.167l-0.257,-0.168l-0.256,-0.17l-0.255,-0.171l-0.254,-0.173l-0.253,-0.174l-0.252,-0.175l-0.25,-0.177l-0.249,-0.179l-0.249,-0.18l-0.247,-0.182l-0.246,-0.182l-0.245,-0.185l-0.244,-0.186l-0.242,-0.187l-0.242,-0.188l-0.24,-0.19l-0.239,-0.192l-0.238,-0.193l-0.237,-0.194l-0.235,-0.196l-0.235,-0.197l-0.233,-0.198l-0.232,-0.2l-0.231,-0.201l-0.229,-0.202l-0.229,-0.204l-0.227,-0.205l-0.226,-0.207l-0.224,-0.208l-0.224,-0.209l-0.222,-0.211l-0.221,-0.211l-0.219,-0.213l-0.218,-0.215l-0.217,-0.216l-0.216,-0.217l-0.215,-0.218l-0.213,-0.219l-0.211,-0.221l-0.211,-0.222l-0.209,-0.224l-0.208,-0.224l-0.207,-0.226l-0.205,-0.227l-0.204,-0.229l-0.202,-0.229l-0.201,-0.231l-0.2,-0.232l-0.198,-0.233l-0.197,-0.235l-0.196,-0.235l-0.194,-0.237l-0.193,-0.238l-0.192,-0.239l-0.19,-0.24l-0.188,-0.242l-0.187,-0.242l-0.186,-0.244l-0.185,-0.245l-0.182,-0.246l-0.182,-0.247l-0.18,-0.249l-0.179,-0.249l-0.177,-0.25l-0.175,-0.252l-0.174,-0.253l-0.173,-0.254l-0.171,-0.255l-0.17,-0.256l-0.168,-0.257l-0.167,-0.258l-0.165,-0.259l-0.163,-0.26l-0.163,-0.262l-0.16,-0.262l-0.159,-0.263l-0.158,-0.265l-0.156,-0.265l-0.154,-0.267l-0.153,-0.267l-0.151,-0.269l-0.15,-0.269l-0.148,-0.271l-0.146,-0.271l-0.145,-0.273l-0.143,-0.273l-0.142,-0.274l-0.14,-0.276l-0.139,-0.276l-0.136,-0.277l-0.136,-0.279l-0.133,-0.279l-0.132,-0.28l-0.13,-0.281l-0.129,-0.282l-0.127,-0.283l-0.125,-0.283l-0.124,-0.285l-0.122,-0.285l-0.12,-0.287l-0.118,-0.287l-0.117,-0.288l-0.115,-0.289l-0.113,-0.29l-0.112,-0.291l-0.11,-0.292l-0.108,-0.292l-0.107,-0.293l-0.104,-0.294l-0.103,-0.295l-0.101,-0.296l-0.1,-0.297l-0.098,-0.297l-0.095,-0.298l-0.095,-0.299l-0.092,-0.3l-0.09,-0.3l-0.089,-0.302l-0.087,-0.302l-0.085,-0.303l-0.083,-0.303l-0.082,-0.305l-0.079,-0.305l-0.078,-0.305l-0.076,-0.307l-0.074,-0.307l-0.072,-0.308l-0.07,-0.309l-0.069,-0.309l-0.066,-0.31l-0.065,-0.311l-0.063,-0.312l-0.061,-0.312l-0.059,-0.313l-0.057,-0.313l-0.055,-0.314l-0.053,-0.315l-0.052,-0.315l-0.049,-0.317l-0.047,-0.316l-0.046,-0.318l-0.043,-0.318l-0.042,-0.318l-0.04,-0.319l-0.037,-0.32l-0.036,-0.321l-0.033,-0.321l-0.032,-0.321l-0.03,-0.322l-0.028,-0.323l-0.025,-0.323l-0.024,-0.324l-0.021,-0.325l-0.02,-0.325l-0.018,-0.325l-0.015,-0.326l-0.014,-0.327l-0.011,-0.327l-0.009,-0.328l-0.008,-0.328l-0.005,-0.328l-0.003,-0.329l-0.001,-0.33l0.001,-0.33l0.003,-0.329l0.005,-0.328l0.008,-0.328l0.009,-0.328l0.011,-0.327l0.014,-0.327l0.015,-0.326l0.018,-0.325l0.02,-0.325l0.021,-0.325l0.024,-0.324l0.025,-0.323l0.028,-0.323l0.03,-0.322l0.032,-0.321l0.033,-0.321l0.036,-0.321l0.037,-0.32l0.04,-0.319l0.042,-0.318l0.043,-0.318l0.046,-0.318l0.047,-0.316l0.049,-0.317l0.052,-0.315l0.053,-0.315l0.055,-0.314l0.057,-0.313l0.059,-0.313l0.061,-0.312l0.063,-0.312l0.065,-0.311l0.066,-0.31l0.069,-0.309l0.07,-0.309l0.072,-0.308l0.074,-0.307l0.076,-0.307l0.078,-0.305l0.079,-0.305l0.082,-0.305l0.083,-0.303l0.085,-0.303l0.087,-0.302l0.089,-0.302l0.09,-0.3l0.092,-0.3l0.095,-0.299l0.095,-0.298l0.098,-0.297l0.1,-0.297l0.101,-0.296l0.103,-0.295l0.104,-0.294l0.107,-0.293l0.108,-0.292l0.11,-0.292l0.112,-0.291l0.113,-0.29l0.115,-0.289l0.117,-0.288l0.118,-0.287l0.12,-0.287l0.122,-0.285l0.124,-0.285l0.125,-0.283l0.127,-0.283l0.129,-0.282l0.13,-0.281l0.132,-0.28l0.133,-0.279l0.136,-0.279l0.136,-0.277l0.139,-0.276l0.14,-0.276l0.142,-0.274l0.143,-0.273l0.145,-0.273l0.146,-0.271l0.148,-0.271l0.15,-0.269l0.151,-0.269l0.153,-0.267l0.154,-0.267l0.156,-0.265l0.158,-0.265l0.159,-0.263l0.16,-0.262l0.163,-0.262l0.163,-0.26l0.165,-0.259l0.167,-0.258l0.168,-0.257l0.17,-0.256l0.171,-0.255l0.173,-0.254l0.174,-0.253l0.175,-0.252l0.177,-0.25l0.179,-0.249l0.18,-0.249l0.182,-0.247l0.182,-0.246l0.185,-0.245l0.186,-0.244l0.187,-0.242l0.188,-0.242l0.19,-0.24l0.192,-0.239l0.193,-0.238l0.194,-0.237l0.196,-0.235l0.197,-0.235l0.198,-0.233l0.2,-0.232l0.201,-0.231l0.202,-0.229l0.204,-0.229l0.205,-0.227l0.207,-0.226l0.208,-0.224l0.209,-0.224l0.211,-0.222l0.211,-0.221l0.213,-0.219l0.215,-0.218l0.216,-0.217l0.217,-0.216l0.218,-0.215l0.219,-0.213l0.221,-0.211l0.222,-0.211l0.224,-0.209l0.224,-0.208l0.226,-0.207l0.227,-0.205l0.229,-0.204l0.229,-0.202l0.231,-0.201l0.232,-0.2l0.233,-0.198l0.235,-0.197l0.235,-0.196l0.237,-0.194l0.238,-0.193l0.239,-0.192l0.24,-0.19l0.242,-0.188l0.242,-0.187l0.244,-0.186l0.245,-0.185l0.246,-0.182l0.247,-0.182l0.249,-0.18l0.249,-0.179l0.25,-0.177l0.252,-0.175l0.253,-0.174l0.254,-0.173l0.255,-0.171l0.256,-0.17l0.257,-0.168l0.258,-0.167l0.259,-0.165l0.26,-0.163l0.262,-0.163l0.262,-0.16l0.263,-0.159l0.265,-0.158l0.265,-0.156l0.267,-0.154l0.267,-0.153l0.269,-0.151l0.269,-0.15l0.271,-0.148l0.271,-0.146l0.273,-0.145l0.273,-0.143l0.274,-0.142l0.276,-0.14l0.276,-0.139l0.277,-0.136l0.279,-0.136l0.279,-0.133l0.28,-0.132l0.281,-0.13l0.282,-0.129l0.283,-0.127l0.283,-0.125l0.285,-0.124l0.285,-0.122l0.287,-0.12l0.287,-0.118l0.288,-0.117l0.289,-0.115l0.29,-0.113l0.291,-0.112l0.292,-0.11l0.292,-0.108l0.293,-0.107l0.294,-0.104l0.295,-0.103l0.296,-0.101l0.297,-0.1l0.297,-0.098l0.298,-0.095l0.299,-0.095l0.3,-0.092l0.3,-0.09l0.302,-0.089l0.302,-0.087l0.303,-0.085l0.303,-0.083l0.305,-0.082l0.305,-0.079l0.305,-0.078l0.307,-0.076l0.307,-0.074l0.308,-0.072l0.309,-0.07l0.309,-0.069l0.31,-0.066l0.311,-0.065l0.312,-0.063l0.312,-0.061l0.313,-0.059l0.313,-0.057l0.314,-0.055l0.315,-0.053l0.315,-0.052l0.317,-0.049l0.316,-0.047l0.318,-0.046l0.318,-0.043l0.318,-0.042l0.319,-0.04l0.32,-0.037l0.321,-0.036l0.321,-0.033l0.321,-0.032l0.322,-0.03l0.323,-0.028l0.323,-0.025l0.324,-0.024l0.325,-0.021l0.325,-0.02l0.325,-0.018l0.326,-0.015l0.327,-0.014l0.327,-0.011l0.328,-0.009l0.328,-0.008l0.328,-0.005l0.329,-0.003l0.33,-0.001l0.33,0.001Zm-0.631,4.5l-0.301,0.003l-0.3,0.005l-0.299,0.006l-0.299,0.009l-0.299,0.01l-0.298,0.012l-0.298,0.015l-0.297,0.016l-0.296,0.018l-0.296,0.019l-0.296,0.022l-0.295,0.023l-0.294,0.025l-0.294,0.028l-0.293,0.028l-0.293,0.031l-0.292,0.033l-0.292,0.034l-0.29,0.036l-0.291,0.038l-0.29,0.04l-0.289,0.041l-0.289,0.043l-0.288,0.045l-0.288,0.047l-0.287,0.049l-0.286,0.05l-0.286,0.052l-0.285,0.054l-0.284,0.055l-0.284,0.057l-0.283,0.059l-0.283,0.061l-0.281,0.062l-0.282,0.064l-0.28,0.066l-0.28,0.068l-0.279,0.069l-0.279,0.071l-0.278,0.072l-0.277,0.074l-0.277,0.076l-0.276,0.078l-0.275,0.079l-0.274,0.081l-0.274,0.082l-0.273,0.084l-0.273,0.086l-0.271,0.087l-0.271,0.089l-0.27,0.091l-0.27,0.092l-0.269,0.094l-0.267,0.095l-0.268,0.097l-0.266,0.099l-0.266,0.1l-0.265,0.101l-0.264,0.104l-0.263,0.105l-0.263,0.106l-0.261,0.108l-0.261,0.11l-0.261,0.111l-0.259,0.112l-0.259,0.114l-0.257,0.116l-0.257,0.117l-0.256,0.119l-0.255,0.12l-0.255,0.122l-0.254,0.123l-0.252,0.125l-0.252,0.126l-0.251,0.128l-0.25,0.129l-0.249,0.13l-0.249,0.132l-0.247,0.134l-0.247,0.135l-0.246,0.137l-0.244,0.137l-0.244,0.14l-0.243,0.14l-0.242,0.143l-0.241,0.143l-0.241,0.145l-0.239,0.147l-0.238,0.147l-0.237,0.15l-0.237,0.15l-0.235,0.152l-0.235,0.154l-0.233,0.154l-0.232,0.156l-0.232,0.158l-0.231,0.159l-0.229,0.16l-0.229,0.161l-0.227,0.163l-0.227,0.164l-0.225,0.166l-0.225,0.167l-0.223,0.168l-0.222,0.169l-0.222,0.171l-0.22,0.172l-0.219,0.174l-0.218,0.174l-0.217,0.176l-0.216,0.177l-0.215,0.179l-0.214,0.18l-0.213,0.181l-0.211,0.182l-0.211,0.184l-0.209,0.184l-0.209,0.186l-0.207,0.187l-0.206,0.189l-0.205,0.189l-0.204,0.191l-0.203,0.193l-0.201,0.193l-0.2,0.194l-0.199,0.196l-0.199,0.197l-0.196,0.197l-0.196,0.2l-0.194,0.2l-0.194,0.202l-0.192,0.202l-0.19,0.204l-0.19,0.205l-0.189,0.206l-0.187,0.207l-0.186,0.208l-0.185,0.21l-0.183,0.21l-0.182,0.212l-0.182,0.213l-0.179,0.214l-0.178,0.214l-0.177,0.216l-0.177,0.218l-0.174,0.218l-0.174,0.219l-0.172,0.22l-0.171,0.222l-0.169,0.222l-0.168,0.223l-0.167,0.225l-0.166,0.226l-0.164,0.226l-0.163,0.227l-0.161,0.229l-0.16,0.229l-0.159,0.231l-0.158,0.232l-0.156,0.232l-0.154,0.233l-0.154,0.235l-0.152,0.235l-0.15,0.237l-0.15,0.237l-0.147,0.238l-0.147,0.24l-0.145,0.24l-0.143,0.241l-0.143,0.242l-0.14,0.243l-0.14,0.243l-0.138,0.245l-0.136,0.246l-0.135,0.246l-0.133,0.248l-0.133,0.248l-0.13,0.25l-0.129,0.25l-0.128,0.251l-0.126,0.252l-0.125,0.253l-0.123,0.253l-0.122,0.254l-0.12,0.256l-0.119,0.256l-0.117,0.256l-0.115,0.258l-0.115,0.259l-0.112,0.259l-0.111,0.261l-0.11,0.261l-0.108,0.261l-0.106,0.263l-0.105,0.263l-0.103,0.264l-0.102,0.265l-0.1,0.266l-0.099,0.266l-0.097,0.268l-0.095,0.268l-0.094,0.268l-0.092,0.269l-0.091,0.271l-0.089,0.271l-0.087,0.272l-0.086,0.272l-0.084,0.272l-0.082,0.274l-0.081,0.275l-0.079,0.275l-0.078,0.276l-0.076,0.277l-0.074,0.277l-0.072,0.278l-0.071,0.279l-0.069,0.279l-0.068,0.28l-0.066,0.28l-0.064,0.282l-0.062,0.281l-0.061,0.283l-0.059,0.283l-0.057,0.284l-0.055,0.284l-0.054,0.285l-0.052,0.287l-0.05,0.286l-0.049,0.286l-0.047,0.288l-0.045,0.288l-0.043,0.289l-0.041,0.289l-0.04,0.29l-0.038,0.291l-0.036,0.29l-0.034,0.292l-0.033,0.292l-0.031,0.293l-0.028,0.293l-0.027,0.294l-0.026,0.294l-0.023,0.295l-0.022,0.296l-0.019,0.296l-0.018,0.297l-0.016,0.296l-0.014,0.298l-0.013,0.298l-0.01,0.299l-0.009,0.299l-0.006,0.299l-0.005,0.301l-0.003,0.3l-0.001,0.301l0.001,0.301l0.003,0.3l0.005,0.301l0.006,0.299l0.009,0.299l0.01,0.299l0.013,0.298l0.014,0.298l0.016,0.296l0.018,0.297l0.019,0.296l0.022,0.296l0.023,0.295l0.026,0.294l0.027,0.294l0.028,0.293l0.031,0.293l0.033,0.292l0.034,0.292l0.036,0.29l0.038,0.291l0.04,0.29l0.041,0.289l0.043,0.289l0.045,0.288l0.047,0.288l0.049,0.286l0.05,0.286l0.052,0.287l0.054,0.285l0.055,0.284l0.057,0.284l0.059,0.283l0.061,0.283l0.062,0.281l0.064,0.282l0.066,0.28l0.068,0.28l0.069,0.279l0.071,0.279l0.072,0.278l0.074,0.277l0.076,0.277l0.078,0.276l0.079,0.275l0.081,0.275l0.082,0.274l0.084,0.272l0.086,0.272l0.087,0.272l0.089,0.271l0.091,0.271l0.092,0.269l0.094,0.268l0.095,0.268l0.097,0.268l0.099,0.266l0.1,0.266l0.102,0.265l0.103,0.264l0.105,0.263l0.106,0.263l0.108,0.261l0.11,0.261l0.111,0.261l0.112,0.259l0.115,0.259l0.115,0.258l0.117,0.256l0.119,0.256l0.12,0.256l0.122,0.254l0.123,0.253l0.125,0.253l0.126,0.252l0.128,0.251l0.129,0.25l0.13,0.25l0.133,0.248l0.133,0.248l0.135,0.246l0.136,0.246l0.138,0.245l0.14,0.243l0.14,0.243l0.143,0.242l0.143,0.241l0.145,0.24l0.147,0.24l0.147,0.238l0.15,0.237l0.15,0.237l0.152,0.235l0.154,0.235l0.154,0.233l0.156,0.232l0.158,0.232l0.159,0.231l0.16,0.229l0.161,0.229l0.163,0.227l0.164,0.226l0.166,0.226l0.167,0.225l0.168,0.223l0.169,0.222l0.171,0.222l0.172,0.22l0.174,0.219l0.174,0.218l0.177,0.218l0.177,0.216l0.178,0.214l0.179,0.214l0.182,0.213l0.182,0.212l0.183,0.21l0.185,0.209l0.186,0.209l0.187,0.207l0.189,0.206l0.19,0.205l0.19,0.204l0.192,0.202l0.194,0.202l0.194,0.2l0.196,0.2l0.196,0.197l0.199,0.197l0.199,0.196l0.2,0.194l0.201,0.193l0.203,0.193l0.204,0.191l0.205,0.189l0.206,0.189l0.207,0.187l0.208,0.186l0.21,0.184l0.211,0.184l0.211,0.182l0.213,0.181l0.214,0.18l0.215,0.179l0.216,0.177l0.217,0.176l0.218,0.174l0.219,0.174l0.22,0.172l0.222,0.171l0.222,0.169l0.223,0.168l0.225,0.167l0.225,0.166l0.227,0.164l0.227,0.163l0.229,0.161l0.229,0.16l0.231,0.159l0.232,0.158l0.232,0.156l0.233,0.154l0.235,0.154l0.235,0.152l0.237,0.15l0.237,0.15l0.238,0.147l0.239,0.147l0.241,0.145l0.241,0.143l0.242,0.143l0.243,0.14l0.244,0.14l0.244,0.137l0.246,0.137l0.247,0.135l0.247,0.134l0.249,0.132l0.249,0.13l0.25,0.129l0.251,0.128l0.252,0.126l0.252,0.125l0.254,0.123l0.255,0.122l0.255,0.12l0.256,0.119l0.257,0.117l0.257,0.116l0.259,0.114l0.259,0.112l0.261,0.111l0.261,0.11l0.261,0.108l0.263,0.106l0.263,0.105l0.265,0.104l0.264,0.101l0.266,0.1l0.266,0.099l0.268,0.097l0.267,0.095l0.269,0.094l0.27,0.092l0.27,0.091l0.271,0.089l0.271,0.087l0.273,0.086l0.273,0.084l0.274,0.082l0.274,0.081l0.275,0.079l0.276,0.078l0.277,0.076l0.277,0.074l0.278,0.072l0.279,0.071l0.279,0.069l0.28,0.068l0.28,0.066l0.282,0.064l0.281,0.062l0.283,0.061l0.283,0.059l0.284,0.057l0.284,0.055l0.285,0.054l0.286,0.052l0.286,0.05l0.287,0.049l0.288,0.047l0.288,0.045l0.289,0.043l0.289,0.041l0.29,0.04l0.29,0.038l0.291,0.036l0.292,0.034l0.292,0.033l0.293,0.031l0.293,0.028l0.294,0.028l0.294,0.025l0.295,0.023l0.296,0.022l0.296,0.019l0.296,0.018l0.297,0.016l0.298,0.015l0.298,0.012l0.299,0.01l0.299,0.009l0.299,0.006l0.3,0.005l0.301,0.003l0.301,0.001l0.301,-0.001l0.301,-0.003l0.3,-0.005l0.299,-0.006l0.299,-0.009l0.299,-0.01l0.298,-0.012l0.298,-0.015l0.297,-0.016l0.296,-0.018l0.296,-0.019l0.296,-0.022l0.295,-0.023l0.294,-0.025l0.294,-0.028l0.293,-0.028l0.293,-0.031l0.292,-0.033l0.292,-0.034l0.291,-0.036l0.29,-0.038l0.29,-0.04l0.289,-0.041l0.289,-0.043l0.288,-0.045l0.288,-0.047l0.287,-0.049l0.286,-0.05l0.285,-0.052l0.286,-0.054l0.284,-0.055l0.284,-0.057l0.283,-0.059l0.283,-0.061l0.281,-0.062l0.282,-0.064l0.28,-0.066l0.28,-0.068l0.279,-0.069l0.279,-0.071l0.278,-0.072l0.277,-0.074l0.277,-0.076l0.276,-0.078l0.275,-0.079l0.274,-0.081l0.274,-0.082l0.273,-0.084l0.273,-0.086l0.271,-0.087l0.271,-0.089l0.27,-0.091l0.27,-0.092l0.269,-0.094l0.267,-0.095l0.268,-0.097l0.266,-0.099l0.266,-0.1l0.264,-0.101l0.265,-0.104l0.263,-0.105l0.263,-0.106l0.261,-0.108l0.261,-0.11l0.261,-0.111l0.259,-0.112l0.259,-0.114l0.257,-0.116l0.257,-0.117l0.256,-0.119l0.255,-0.12l0.255,-0.122l0.254,-0.123l0.252,-0.125l0.252,-0.126l0.251,-0.128l0.25,-0.129l0.249,-0.13l0.249,-0.132l0.248,-0.134l0.246,-0.135l0.246,-0.136l0.244,-0.138l0.244,-0.14l0.243,-0.14l0.242,-0.143l0.241,-0.143l0.24,-0.145l0.24,-0.147l0.238,-0.147l0.237,-0.15l0.237,-0.15l0.235,-0.152l0.235,-0.154l0.233,-0.154l0.233,-0.156l0.231,-0.158l0.23,-0.159l0.23,-0.16l0.229,-0.161l0.227,-0.163l0.227,-0.164l0.225,-0.166l0.225,-0.167l0.223,-0.168l0.222,-0.17l0.222,-0.17l0.22,-0.172l0.219,-0.174l0.218,-0.174l0.217,-0.176l0.216,-0.178l0.215,-0.178l0.214,-0.18l0.213,-0.181l0.211,-0.182l0.211,-0.184l0.21,-0.184l0.208,-0.186l0.207,-0.187l0.206,-0.189l0.205,-0.189l0.204,-0.191l0.202,-0.193l0.202,-0.193l0.2,-0.194l0.199,-0.196l0.199,-0.197l0.196,-0.198l0.196,-0.199l0.194,-0.2l0.194,-0.202l0.192,-0.202l0.19,-0.204l0.19,-0.205l0.189,-0.206l0.187,-0.207l0.186,-0.209l0.185,-0.209l0.183,-0.211l0.182,-0.211l0.181,-0.213l0.18,-0.214l0.178,-0.214l0.177,-0.216l0.177,-0.218l0.174,-0.218l0.174,-0.219l0.172,-0.22l0.171,-0.222l0.169,-0.222l0.168,-0.224l0.167,-0.224l0.166,-0.225l0.164,-0.227l0.163,-0.227l0.161,-0.229l0.16,-0.229l0.159,-0.231l0.158,-0.232l0.156,-0.232l0.154,-0.233l0.154,-0.235l0.152,-0.235l0.15,-0.237l0.15,-0.237l0.147,-0.238l0.147,-0.24l0.145,-0.24l0.143,-0.241l0.143,-0.242l0.14,-0.243l0.14,-0.244l0.138,-0.244l0.136,-0.246l0.135,-0.246l0.133,-0.248l0.133,-0.248l0.13,-0.25l0.129,-0.25l0.128,-0.251l0.126,-0.252l0.125,-0.253l0.123,-0.253l0.122,-0.254l0.12,-0.255l0.119,-0.257l0.117,-0.256l0.115,-0.258l0.115,-0.259l0.112,-0.259l0.111,-0.261l0.11,-0.261l0.108,-0.261l0.106,-0.263l0.105,-0.263l0.103,-0.264l0.102,-0.265l0.1,-0.266l0.099,-0.266l0.097,-0.268l0.095,-0.268l0.094,-0.268l0.092,-0.269l0.091,-0.271l0.089,-0.271l0.087,-0.272l0.086,-0.272l0.084,-0.273l0.083,-0.274l0.08,-0.274l0.079,-0.275l0.078,-0.276l0.076,-0.277l0.074,-0.277l0.072,-0.278l0.071,-0.279l0.069,-0.279l0.068,-0.28l0.066,-0.28l0.064,-0.281l0.062,-0.282l0.061,-0.283l0.059,-0.283l0.057,-0.284l0.055,-0.284l0.054,-0.285l0.052,-0.287l0.05,-0.286l0.049,-0.286l0.047,-0.288l0.045,-0.288l0.043,-0.289l0.041,-0.289l0.04,-0.29l0.038,-0.291l0.036,-0.29l0.034,-0.292l0.033,-0.292l0.031,-0.293l0.028,-0.293l0.027,-0.294l0.026,-0.294l0.023,-0.295l0.022,-0.296l0.019,-0.296l0.018,-0.297l0.016,-0.296l0.014,-0.298l0.013,-0.298l0.01,-0.299l0.009,-0.299l0.006,-0.299l0.005,-0.301l0.003,-0.3l0.001,-0.301l-0.001,-0.301l-0.003,-0.3l-0.005,-0.301l-0.006,-0.299l-0.009,-0.299l-0.01,-0.299l-0.013,-0.298l-0.014,-0.298l-0.016,-0.296l-0.018,-0.297l-0.019,-0.296l-0.022,-0.296l-0.023,-0.295l-0.026,-0.294l-0.027,-0.294l-0.028,-0.293l-0.031,-0.293l-0.033,-0.292l-0.034,-0.292l-0.036,-0.29l-0.038,-0.291l-0.04,-0.29l-0.041,-0.289l-0.043,-0.289l-0.045,-0.288l-0.047,-0.288l-0.049,-0.286l-0.05,-0.286l-0.052,-0.287l-0.054,-0.285l-0.055,-0.284l-0.057,-0.284l-0.059,-0.283l-0.061,-0.283l-0.062,-0.282l-0.064,-0.281l-0.066,-0.28l-0.068,-0.28l-0.069,-0.279l-0.071,-0.279l-0.072,-0.278l-0.074,-0.277l-0.076,-0.277l-0.078,-0.276l-0.079,-0.275l-0.08,-0.274l-0.083,-0.274l-0.084,-0.273l-0.086,-0.272l-0.087,-0.272l-0.089,-0.271l-0.091,-0.271l-0.092,-0.269l-0.094,-0.268l-0.095,-0.268l-0.097,-0.268l-0.099,-0.266l-0.1,-0.266l-0.102,-0.265l-0.103,-0.264l-0.105,-0.263l-0.106,-0.263l-0.108,-0.261l-0.11,-0.261l-0.111,-0.261l-0.112,-0.259l-0.115,-0.259l-0.115,-0.258l-0.117,-0.256l-0.119,-0.257l-0.12,-0.255l-0.122,-0.254l-0.123,-0.253l-0.125,-0.253l-0.126,-0.252l-0.128,-0.251l-0.129,-0.25l-0.13,-0.25l-0.133,-0.248l-0.133,-0.248l-0.135,-0.246l-0.136,-0.246l-0.138,-0.244l-0.14,-0.244l-0.14,-0.243l-0.143,-0.242l-0.143,-0.241l-0.145,-0.24l-0.147,-0.24l-0.147,-0.238l-0.15,-0.237l-0.15,-0.237l-0.152,-0.235l-0.154,-0.235l-0.154,-0.233l-0.156,-0.232l-0.158,-0.232l-0.159,-0.231l-0.16,-0.229l-0.161,-0.229l-0.163,-0.227l-0.165,-0.227l-0.165,-0.225l-0.167,-0.224l-0.168,-0.224l-0.169,-0.222l-0.171,-0.222l-0.172,-0.22l-0.174,-0.219l-0.174,-0.218l-0.177,-0.218l-0.177,-0.216l-0.178,-0.214l-0.18,-0.214l-0.181,-0.213l-0.182,-0.211l-0.183,-0.211l-0.185,-0.21l-0.186,-0.208l-0.187,-0.207l-0.189,-0.206l-0.19,-0.205l-0.19,-0.204l-0.192,-0.202l-0.194,-0.202l-0.194,-0.2l-0.196,-0.199l-0.196,-0.198l-0.199,-0.197l-0.199,-0.196l-0.2,-0.194l-0.202,-0.193l-0.202,-0.193l-0.204,-0.191l-0.205,-0.189l-0.206,-0.189l-0.207,-0.187l-0.209,-0.186l-0.209,-0.184l-0.211,-0.184l-0.211,-0.182l-0.213,-0.181l-0.214,-0.18l-0.215,-0.178l-0.216,-0.178l-0.217,-0.176l-0.218,-0.174l-0.219,-0.174l-0.22,-0.172l-0.222,-0.17l-0.222,-0.17l-0.223,-0.168l-0.225,-0.167l-0.225,-0.166l-0.227,-0.164l-0.227,-0.163l-0.229,-0.161l-0.23,-0.16l-0.23,-0.159l-0.231,-0.158l-0.233,-0.156l-0.233,-0.154l-0.235,-0.154l-0.235,-0.152l-0.237,-0.15l-0.237,-0.15l-0.238,-0.147l-0.24,-0.147l-0.24,-0.145l-0.241,-0.143l-0.242,-0.143l-0.243,-0.14l-0.244,-0.14l-0.244,-0.138l-0.246,-0.136l-0.246,-0.135l-0.248,-0.134l-0.249,-0.132l-0.249,-0.13l-0.25,-0.129l-0.251,-0.128l-0.252,-0.126l-0.252,-0.125l-0.254,-0.123l-0.255,-0.122l-0.255,-0.12l-0.256,-0.119l-0.257,-0.117l-0.257,-0.116l-0.259,-0.114l-0.259,-0.112l-0.261,-0.111l-0.261,-0.11l-0.261,-0.108l-0.263,-0.106l-0.263,-0.105l-0.264,-0.104l-0.265,-0.101l-0.266,-0.1l-0.266,-0.099l-0.268,-0.097l-0.267,-0.095l-0.269,-0.094l-0.27,-0.092l-0.27,-0.091l-0.271,-0.089l-0.271,-0.087l-0.273,-0.086l-0.273,-0.084l-0.274,-0.082l-0.274,-0.081l-0.275,-0.079l-0.276,-0.078l-0.277,-0.076l-0.277,-0.074l-0.278,-0.072l-0.279,-0.071l-0.279,-0.069l-0.28,-0.068l-0.28,-0.066l-0.282,-0.064l-0.281,-0.062l-0.283,-0.061l-0.283,-0.059l-0.284,-0.057l-0.284,-0.055l-0.286,-0.054l-0.285,-0.052l-0.286,-0.05l-0.287,-0.049l-0.288,-0.047l-0.288,-0.045l-0.289,-0.043l-0.289,-0.041l-0.29,-0.04l-0.29,-0.038l-0.291,-0.036l-0.292,-0.034l-0.292,-0.033l-0.293,-0.031l-0.293,-0.028l-0.294,-0.028l-0.294,-0.025l-0.295,-0.023l-0.296,-0.022l-0.296,-0.019l-0.296,-0.018l-0.297,-0.016l-0.298,-0.015l-0.298,-0.012l-0.299,-0.01l-0.299,-0.009l-0.299,-0.006l-0.3,-0.005l-0.301,-0.003l-0.301,-0.001l-0.301,0.001Z" style="fill:#fff;fill-opacity:0.44;"/><rect x="0" y="0" width="256" height="128" style="fill:none;"/><path d="M87,28c0,0 16.643,21.299 32.109,25.114c25,6.166 47.076,7.36 69.891,2.886c13.541,-2.655 43,-19 43,-19c-15.751,19.689 -14.412,35.921 -2,52c0,0 -29.551,-15.996 -42,-19c-22.683,-5.473 -43.764,-3.836 -69.098,1.164c-16.899,3.335 -32.902,28.836 -32.902,28.836c23.201,-22.566 15.022,-54.055 1,-72Z" style="fill:#fff;fill-opacity:0.44;"/></g><circle cx="256" cy="64" r="36" style="fill:#fff;fill-opacity:0.57;"/><path d="M256.233,28.001l0.232,0.002l0.232,0.004l0.232,0.005l0.231,0.006l0.231,0.008l0.23,0.01l0.23,0.011l0.23,0.012l0.23,0.014l0.229,0.015l0.228,0.017l0.228,0.018l0.228,0.02l0.228,0.021l0.227,0.022l0.226,0.024l0.226,0.025l0.226,0.027l0.225,0.027l0.225,0.03l0.225,0.031l0.224,0.032l0.223,0.033l0.223,0.035l0.223,0.036l0.222,0.038l0.222,0.039l0.221,0.04l0.221,0.042l0.221,0.043l0.219,0.044l0.22,0.046l0.219,0.047l0.218,0.048l0.218,0.05l0.217,0.05l0.217,0.053l0.217,0.053l0.216,0.055l0.215,0.056l0.215,0.058l0.214,0.059l0.214,0.06l0.213,0.061l0.213,0.063l0.212,0.063l0.211,0.066l0.211,0.066l0.211,0.068l0.21,0.069l0.209,0.07l0.209,0.071l0.208,0.073l0.208,0.074l0.207,0.075l0.206,0.076l0.206,0.078l0.205,0.079l0.205,0.08l0.204,0.081l0.203,0.082l0.203,0.084l0.202,0.085l0.202,0.086l0.201,0.087l0.2,0.089l0.2,0.089l0.199,0.091l0.198,0.092l0.198,0.093l0.197,0.094l0.196,0.096l0.196,0.096l0.195,0.098l0.194,0.099l0.194,0.1l0.193,0.101l0.192,0.102l0.192,0.104l0.191,0.104l0.19,0.106l0.19,0.107l0.188,0.107l0.188,0.109l0.188,0.111l0.186,0.111l0.186,0.112l0.186,0.113l0.184,0.115l0.184,0.115l0.183,0.117l0.182,0.117l0.181,0.119l0.181,0.12l0.18,0.121l0.179,0.122l0.179,0.123l0.177,0.124l0.177,0.125l0.176,0.126l0.175,0.127l0.175,0.128l0.174,0.129l0.173,0.13l0.172,0.131l0.171,0.132l0.17,0.133l0.17,0.135l0.169,0.135l0.168,0.136l0.167,0.137l0.166,0.138l0.166,0.139l0.164,0.14l0.164,0.141l0.163,0.142l0.162,0.143l0.161,0.144l0.16,0.145l0.16,0.146l0.158,0.146l0.158,0.148l0.157,0.149l0.156,0.149l0.155,0.151l0.154,0.151l0.153,0.152l0.152,0.153l0.151,0.154l0.151,0.155l0.149,0.156l0.149,0.157l0.148,0.158l0.146,0.158l0.146,0.16l0.145,0.16l0.144,0.161l0.143,0.162l0.142,0.163l0.141,0.164l0.14,0.164l0.139,0.166l0.138,0.166l0.137,0.167l0.136,0.168l0.135,0.169l0.135,0.17l0.133,0.17l0.132,0.171l0.131,0.172l0.13,0.173l0.129,0.174l0.128,0.175l0.127,0.175l0.126,0.176l0.125,0.177l0.124,0.177l0.123,0.179l0.122,0.179l0.121,0.18l0.12,0.181l0.119,0.181l0.117,0.182l0.117,0.183l0.115,0.184l0.115,0.184l0.113,0.186l0.112,0.186l0.111,0.186l0.111,0.188l0.109,0.188l0.107,0.188l0.107,0.19l0.106,0.19l0.104,0.191l0.104,0.192l0.102,0.192l0.101,0.193l0.1,0.194l0.099,0.194l0.098,0.195l0.096,0.196l0.096,0.196l0.094,0.197l0.093,0.198l0.092,0.198l0.091,0.199l0.089,0.2l0.089,0.2l0.087,0.201l0.086,0.202l0.085,0.202l0.084,0.203l0.082,0.203l0.081,0.204l0.08,0.205l0.079,0.205l0.078,0.206l0.076,0.206l0.075,0.207l0.074,0.208l0.073,0.208l0.071,0.209l0.07,0.209l0.069,0.21l0.068,0.211l0.066,0.211l0.066,0.211l0.063,0.212l0.063,0.213l0.061,0.213l0.06,0.214l0.059,0.214l0.058,0.215l0.056,0.215l0.055,0.216l0.053,0.217l0.053,0.217l0.05,0.217l0.05,0.218l0.048,0.218l0.047,0.219l0.046,0.22l0.044,0.219l0.043,0.221l0.042,0.221l0.04,0.221l0.039,0.222l0.038,0.222l0.036,0.223l0.035,0.223l0.033,0.223l0.032,0.224l0.031,0.225l0.03,0.225l0.027,0.225l0.027,0.226l0.025,0.226l0.024,0.226l0.022,0.227l0.021,0.228l0.02,0.228l0.018,0.228l0.017,0.228l0.015,0.229l0.014,0.23l0.012,0.23l0.011,0.23l0.01,0.23l0.008,0.231l0.006,0.231l0.005,0.232l0.004,0.232l0.002,0.232l0.001,0.233l-0.001,0.233l-0.002,0.232l-0.004,0.232l-0.005,0.232l-0.006,0.231l-0.008,0.231l-0.01,0.23l-0.011,0.23l-0.012,0.23l-0.014,0.23l-0.015,0.229l-0.017,0.228l-0.018,0.228l-0.02,0.228l-0.021,0.228l-0.022,0.227l-0.024,0.226l-0.025,0.226l-0.027,0.226l-0.027,0.225l-0.03,0.225l-0.031,0.225l-0.032,0.224l-0.033,0.223l-0.035,0.223l-0.036,0.223l-0.038,0.222l-0.039,0.222l-0.04,0.221l-0.042,0.221l-0.043,0.221l-0.044,0.219l-0.046,0.22l-0.047,0.219l-0.048,0.218l-0.05,0.218l-0.05,0.217l-0.053,0.217l-0.053,0.217l-0.055,0.216l-0.056,0.215l-0.058,0.215l-0.059,0.214l-0.06,0.214l-0.061,0.213l-0.063,0.213l-0.063,0.212l-0.066,0.211l-0.066,0.211l-0.068,0.211l-0.069,0.21l-0.07,0.209l-0.071,0.209l-0.073,0.208l-0.074,0.208l-0.075,0.207l-0.076,0.206l-0.078,0.206l-0.079,0.205l-0.08,0.205l-0.081,0.204l-0.082,0.203l-0.084,0.203l-0.085,0.202l-0.086,0.202l-0.087,0.201l-0.089,0.2l-0.089,0.2l-0.091,0.199l-0.092,0.198l-0.093,0.198l-0.094,0.197l-0.096,0.196l-0.096,0.196l-0.098,0.195l-0.099,0.194l-0.1,0.194l-0.101,0.193l-0.102,0.192l-0.104,0.192l-0.104,0.191l-0.106,0.19l-0.107,0.19l-0.107,0.188l-0.109,0.188l-0.111,0.188l-0.111,0.186l-0.112,0.186l-0.113,0.186l-0.115,0.184l-0.115,0.184l-0.117,0.183l-0.117,0.182l-0.119,0.181l-0.12,0.181l-0.121,0.18l-0.122,0.179l-0.123,0.179l-0.124,0.177l-0.125,0.177l-0.126,0.176l-0.127,0.175l-0.128,0.175l-0.129,0.174l-0.13,0.173l-0.131,0.172l-0.132,0.171l-0.133,0.17l-0.135,0.17l-0.135,0.169l-0.136,0.168l-0.137,0.167l-0.138,0.166l-0.139,0.166l-0.14,0.164l-0.141,0.164l-0.142,0.163l-0.143,0.162l-0.144,0.161l-0.145,0.16l-0.146,0.16l-0.146,0.158l-0.148,0.158l-0.149,0.157l-0.149,0.156l-0.151,0.155l-0.151,0.154l-0.152,0.153l-0.153,0.152l-0.154,0.151l-0.155,0.151l-0.156,0.149l-0.157,0.149l-0.158,0.148l-0.158,0.146l-0.16,0.146l-0.16,0.145l-0.161,0.144l-0.162,0.143l-0.163,0.142l-0.164,0.141l-0.164,0.14l-0.166,0.139l-0.166,0.138l-0.167,0.137l-0.168,0.136l-0.169,0.135l-0.17,0.135l-0.17,0.133l-0.171,0.132l-0.172,0.131l-0.173,0.13l-0.174,0.129l-0.175,0.128l-0.175,0.127l-0.176,0.126l-0.177,0.125l-0.177,0.124l-0.179,0.123l-0.179,0.122l-0.18,0.121l-0.181,0.12l-0.181,0.119l-0.182,0.117l-0.183,0.117l-0.184,0.115l-0.184,0.115l-0.186,0.113l-0.186,0.112l-0.186,0.111l-0.188,0.111l-0.188,0.109l-0.188,0.107l-0.19,0.107l-0.19,0.106l-0.191,0.104l-0.192,0.104l-0.192,0.102l-0.193,0.101l-0.194,0.1l-0.194,0.099l-0.195,0.098l-0.196,0.096l-0.196,0.096l-0.197,0.094l-0.198,0.093l-0.198,0.092l-0.199,0.091l-0.2,0.089l-0.2,0.089l-0.201,0.087l-0.202,0.086l-0.202,0.085l-0.203,0.084l-0.203,0.082l-0.204,0.081l-0.205,0.08l-0.205,0.079l-0.206,0.078l-0.206,0.076l-0.207,0.075l-0.208,0.074l-0.208,0.073l-0.209,0.071l-0.209,0.07l-0.21,0.069l-0.211,0.068l-0.211,0.066l-0.211,0.066l-0.212,0.063l-0.213,0.063l-0.213,0.061l-0.214,0.06l-0.214,0.059l-0.215,0.058l-0.215,0.056l-0.216,0.055l-0.217,0.053l-0.217,0.053l-0.217,0.05l-0.218,0.05l-0.218,0.048l-0.219,0.047l-0.22,0.046l-0.219,0.044l-0.221,0.043l-0.221,0.042l-0.221,0.04l-0.222,0.039l-0.222,0.038l-0.223,0.036l-0.223,0.035l-0.223,0.033l-0.224,0.032l-0.225,0.031l-0.225,0.03l-0.225,0.027l-0.226,0.027l-0.226,0.025l-0.226,0.024l-0.227,0.022l-0.228,0.021l-0.228,0.02l-0.228,0.018l-0.228,0.017l-0.229,0.015l-0.23,0.014l-0.23,0.012l-0.23,0.011l-0.23,0.01l-0.231,0.008l-0.231,0.006l-0.232,0.005l-0.232,0.004l-0.232,0.002l-0.233,0.001l-0.233,-0.001l-0.232,-0.002l-0.232,-0.004l-0.232,-0.005l-0.231,-0.006l-0.231,-0.008l-0.23,-0.01l-0.23,-0.011l-0.23,-0.012l-0.23,-0.014l-0.229,-0.015l-0.228,-0.017l-0.228,-0.018l-0.228,-0.02l-0.228,-0.021l-0.227,-0.022l-0.226,-0.024l-0.226,-0.025l-0.226,-0.027l-0.225,-0.027l-0.225,-0.03l-0.225,-0.031l-0.224,-0.032l-0.223,-0.033l-0.223,-0.035l-0.223,-0.036l-0.222,-0.038l-0.222,-0.039l-0.221,-0.04l-0.221,-0.042l-0.221,-0.043l-0.219,-0.044l-0.22,-0.046l-0.219,-0.047l-0.218,-0.048l-0.218,-0.05l-0.217,-0.05l-0.217,-0.053l-0.217,-0.053l-0.216,-0.055l-0.215,-0.056l-0.215,-0.058l-0.214,-0.059l-0.214,-0.06l-0.213,-0.061l-0.213,-0.063l-0.212,-0.063l-0.211,-0.066l-0.211,-0.066l-0.211,-0.068l-0.21,-0.069l-0.209,-0.07l-0.209,-0.071l-0.208,-0.073l-0.208,-0.074l-0.207,-0.075l-0.206,-0.076l-0.206,-0.078l-0.205,-0.079l-0.205,-0.08l-0.204,-0.081l-0.203,-0.082l-0.203,-0.084l-0.202,-0.085l-0.202,-0.086l-0.201,-0.087l-0.2,-0.089l-0.2,-0.089l-0.199,-0.091l-0.198,-0.092l-0.198,-0.093l-0.197,-0.094l-0.196,-0.096l-0.196,-0.096l-0.195,-0.098l-0.194,-0.099l-0.194,-0.1l-0.193,-0.101l-0.192,-0.102l-0.192,-0.104l-0.191,-0.104l-0.19,-0.106l-0.19,-0.107l-0.188,-0.107l-0.188,-0.109l-0.188,-0.111l-0.186,-0.111l-0.186,-0.112l-0.186,-0.113l-0.184,-0.115l-0.184,-0.115l-0.183,-0.117l-0.182,-0.117l-0.181,-0.119l-0.181,-0.12l-0.18,-0.121l-0.179,-0.122l-0.179,-0.123l-0.177,-0.124l-0.177,-0.125l-0.176,-0.126l-0.175,-0.127l-0.175,-0.128l-0.174,-0.129l-0.173,-0.13l-0.172,-0.131l-0.171,-0.132l-0.17,-0.133l-0.17,-0.135l-0.169,-0.135l-0.168,-0.136l-0.167,-0.137l-0.166,-0.138l-0.166,-0.139l-0.164,-0.14l-0.164,-0.141l-0.163,-0.142l-0.162,-0.143l-0.161,-0.144l-0.16,-0.145l-0.16,-0.146l-0.158,-0.146l-0.158,-0.148l-0.157,-0.149l-0.156,-0.149l-0.155,-0.151l-0.154,-0.151l-0.153,-0.152l-0.152,-0.153l-0.151,-0.154l-0.151,-0.155l-0.149,-0.156l-0.149,-0.157l-0.148,-0.158l-0.146,-0.158l-0.146,-0.16l-0.145,-0.16l-0.144,-0.161l-0.143,-0.162l-0.142,-0.163l-0.141,-0.164l-0.14,-0.164l-0.139,-0.166l-0.138,-0.166l-0.137,-0.167l-0.136,-0.168l-0.135,-0.169l-0.135,-0.17l-0.133,-0.17l-0.132,-0.171l-0.131,-0.172l-0.13,-0.173l-0.129,-0.174l-0.128,-0.175l-0.127,-0.175l-0.126,-0.176l-0.125,-0.177l-0.124,-0.177l-0.123,-0.179l-0.122,-0.179l-0.121,-0.18l-0.12,-0.181l-0.119,-0.181l-0.117,-0.182l-0.117,-0.183l-0.115,-0.184l-0.115,-0.184l-0.113,-0.186l-0.112,-0.186l-0.111,-0.186l-0.111,-0.188l-0.109,-0.188l-0.107,-0.188l-0.107,-0.19l-0.106,-0.19l-0.104,-0.191l-0.104,-0.192l-0.102,-0.192l-0.101,-0.193l-0.1,-0.194l-0.099,-0.194l-0.098,-0.195l-0.096,-0.196l-0.096,-0.196l-0.094,-0.197l-0.093,-0.198l-0.092,-0.198l-0.091,-0.199l-0.089,-0.2l-0.089,-0.2l-0.087,-0.201l-0.086,-0.202l-0.085,-0.202l-0.084,-0.203l-0.082,-0.203l-0.081,-0.204l-0.08,-0.205l-0.079,-0.205l-0.078,-0.206l-0.076,-0.206l-0.075,-0.207l-0.074,-0.208l-0.073,-0.208l-0.071,-0.209l-0.07,-0.209l-0.069,-0.21l-0.068,-0.211l-0.066,-0.211l-0.066,-0.211l-0.063,-0.212l-0.063,-0.213l-0.061,-0.213l-0.06,-0.214l-0.059,-0.214l-0.058,-0.215l-0.056,-0.215l-0.055,-0.216l-0.053,-0.217l-0.053,-0.217l-0.05,-0.217l-0.05,-0.218l-0.048,-0.218l-0.047,-0.219l-0.046,-0.22l-0.044,-0.219l-0.043,-0.221l-0.042,-0.221l-0.04,-0.221l-0.039,-0.222l-0.038,-0.222l-0.036,-0.223l-0.035,-0.223l-0.033,-0.223l-0.032,-0.224l-0.031,-0.225l-0.03,-0.225l-0.027,-0.225l-0.027,-0.226l-0.025,-0.226l-0.024,-0.226l-0.022,-0.227l-0.021,-0.228l-0.02,-0.228l-0.018,-0.228l-0.017,-0.228l-0.015,-0.229l-0.014,-0.23l-0.012,-0.23l-0.011,-0.23l-0.01,-0.23l-0.008,-0.231l-0.006,-0.231l-0.005,-0.232l-0.004,-0.232l-0.002,-0.232l-0.001,-0.233l0.001,-0.233l0.002,-0.232l0.004,-0.232l0.005,-0.232l0.006,-0.231l0.008,-0.231l0.01,-0.23l0.011,-0.23l0.012,-0.23l0.014,-0.23l0.015,-0.229l0.017,-0.228l0.018,-0.228l0.02,-0.228l0.021,-0.228l0.022,-0.227l0.024,-0.226l0.025,-0.226l0.027,-0.226l0.027,-0.225l0.03,-0.225l0.031,-0.225l0.032,-0.224l0.033,-0.223l0.035,-0.223l0.036,-0.223l0.038,-0.222l0.039,-0.222l0.04,-0.221l0.042,-0.221l0.043,-0.221l0.044,-0.219l0.046,-0.22l0.047,-0.219l0.048,-0.218l0.05,-0.218l0.05,-0.217l0.053,-0.217l0.053,-0.217l0.055,-0.216l0.056,-0.215l0.058,-0.215l0.059,-0.214l0.06,-0.214l0.061,-0.213l0.063,-0.213l0.063,-0.212l0.066,-0.211l0.066,-0.211l0.068,-0.211l0.069,-0.21l0.07,-0.209l0.071,-0.209l0.073,-0.208l0.074,-0.208l0.075,-0.207l0.076,-0.206l0.078,-0.206l0.079,-0.205l0.08,-0.205l0.081,-0.204l0.082,-0.203l0.084,-0.203l0.085,-0.202l0.086,-0.202l0.087,-0.201l0.089,-0.2l0.089,-0.2l0.091,-0.199l0.092,-0.198l0.093,-0.198l0.094,-0.197l0.096,-0.196l0.096,-0.196l0.098,-0.195l0.099,-0.194l0.1,-0.194l0.101,-0.193l0.102,-0.192l0.104,-0.192l0.104,-0.191l0.106,-0.19l0.107,-0.19l0.107,-0.188l0.109,-0.188l0.111,-0.188l0.111,-0.186l0.112,-0.186l0.113,-0.186l0.115,-0.184l0.115,-0.184l0.117,-0.183l0.117,-0.182l0.119,-0.181l0.12,-0.181l0.121,-0.18l0.122,-0.179l0.123,-0.179l0.124,-0.177l0.125,-0.177l0.126,-0.176l0.127,-0.175l0.128,-0.175l0.129,-0.174l0.13,-0.173l0.131,-0.172l0.132,-0.171l0.133,-0.17l0.135,-0.17l0.135,-0.169l0.136,-0.168l0.137,-0.167l0.138,-0.166l0.139,-0.166l0.14,-0.164l0.141,-0.164l0.142,-0.163l0.143,-0.162l0.144,-0.161l0.145,-0.16l0.146,-0.16l0.146,-0.158l0.148,-0.158l0.149,-0.157l0.149,-0.156l0.151,-0.155l0.151,-0.154l0.152,-0.153l0.153,-0.152l0.154,-0.151l0.155,-0.151l0.156,-0.149l0.157,-0.149l0.158,-0.148l0.158,-0.146l0.16,-0.146l0.16,-0.145l0.161,-0.144l0.162,-0.143l0.163,-0.142l0.164,-0.141l0.164,-0.14l0.166,-0.139l0.166,-0.138l0.167,-0.137l0.168,-0.136l0.169,-0.135l0.17,-0.135l0.17,-0.133l0.171,-0.132l0.172,-0.131l0.173,-0.13l0.174,-0.129l0.175,-0.128l0.175,-0.127l0.176,-0.126l0.177,-0.125l0.177,-0.124l0.179,-0.123l0.179,-0.122l0.18,-0.121l0.181,-0.12l0.181,-0.119l0.182,-0.117l0.183,-0.117l0.184,-0.115l0.184,-0.115l0.186,-0.113l0.186,-0.112l0.186,-0.111l0.188,-0.111l0.188,-0.109l0.188,-0.107l0.19,-0.107l0.19,-0.106l0.191,-0.104l0.192,-0.104l0.192,-0.102l0.193,-0.101l0.194,-0.1l0.194,-0.099l0.195,-0.098l0.196,-0.096l0.196,-0.096l0.197,-0.094l0.198,-0.093l0.198,-0.092l0.199,-0.091l0.2,-0.089l0.2,-0.089l0.201,-0.087l0.202,-0.086l0.202,-0.085l0.203,-0.084l0.203,-0.082l0.204,-0.081l0.205,-0.08l0.205,-0.079l0.206,-0.078l0.206,-0.076l0.207,-0.075l0.208,-0.074l0.208,-0.073l0.209,-0.071l0.209,-0.07l0.21,-0.069l0.211,-0.068l0.211,-0.066l0.211,-0.066l0.212,-0.063l0.213,-0.063l0.213,-0.061l0.214,-0.06l0.214,-0.059l0.215,-0.058l0.215,-0.056l0.216,-0.055l0.217,-0.053l0.217,-0.053l0.217,-0.05l0.218,-0.05l0.218,-0.048l0.219,-0.047l0.22,-0.046l0.219,-0.044l0.221,-0.043l0.221,-0.042l0.221,-0.04l0.222,-0.039l0.222,-0.038l0.223,-0.036l0.223,-0.035l0.223,-0.033l0.224,-0.032l0.225,-0.031l0.225,-0.03l0.225,-0.027l0.226,-0.027l0.226,-0.025l0.226,-0.024l0.227,-0.022l0.228,-0.021l0.228,-0.02l0.228,-0.018l0.228,-0.017l0.229,-0.015l0.23,-0.014l0.23,-0.012l0.23,-0.011l0.23,-0.01l0.231,-0.008l0.231,-0.006l0.232,-0.005l0.232,-0.004l0.232,-0.002l0.233,-0.001l0.233,0.001Zm-0.408,9l-0.176,0.001l-0.175,0.003l-0.174,0.004l-0.175,0.005l-0.173,0.006l-0.174,0.007l-0.173,0.008l-0.173,0.01l-0.172,0.01l-0.172,0.012l-0.172,0.012l-0.172,0.014l-0.171,0.014l-0.171,0.016l-0.17,0.017l-0.17,0.018l-0.17,0.019l-0.169,0.02l-0.169,0.021l-0.169,0.021l-0.168,0.023l-0.168,0.025l-0.168,0.025l-0.167,0.026l-0.166,0.027l-0.167,0.028l-0.166,0.029l-0.165,0.03l-0.166,0.032l-0.165,0.032l-0.164,0.033l-0.165,0.034l-0.163,0.035l-0.164,0.036l-0.163,0.038l-0.162,0.038l-0.163,0.039l-0.162,0.04l-0.161,0.041l-0.161,0.042l-0.161,0.043l-0.16,0.044l-0.159,0.045l-0.16,0.046l-0.16,0.047l-0.158,0.047l-0.158,0.049l-0.158,0.05l-0.158,0.05l-0.157,0.052l-0.156,0.052l-0.156,0.054l-0.156,0.054l-0.155,0.055l-0.155,0.056l-0.155,0.058l-0.153,0.058l-0.154,0.058l-0.154,0.061l-0.152,0.06l-0.151,0.062l-0.153,0.063l-0.151,0.063l-0.151,0.064l-0.15,0.066l-0.15,0.066l-0.15,0.067l-0.149,0.068l-0.148,0.069l-0.149,0.07l-0.147,0.07l-0.147,0.072l-0.147,0.072l-0.145,0.073l-0.146,0.074l-0.146,0.075l-0.144,0.076l-0.144,0.077l-0.144,0.077l-0.143,0.079l-0.142,0.078l-0.143,0.081l-0.142,0.081l-0.14,0.081l-0.14,0.083l-0.141,0.083l-0.139,0.085l-0.139,0.085l-0.139,0.086l-0.137,0.086l-0.138,0.088l-0.137,0.088l-0.136,0.089l-0.136,0.09l-0.134,0.09l-0.135,0.092l-0.134,0.093l-0.134,0.093l-0.132,0.093l-0.132,0.095l-0.131,0.095l-0.131,0.096l-0.132,0.098l-0.129,0.097l-0.13,0.099l-0.129,0.1l-0.128,0.099l-0.127,0.101l-0.126,0.101l-0.127,0.103l-0.126,0.103l-0.124,0.103l-0.125,0.105l-0.124,0.106l-0.122,0.105l-0.123,0.107l-0.122,0.108l-0.122,0.108l-0.12,0.109l-0.119,0.109l-0.12,0.111l-0.118,0.111l-0.118,0.111l-0.118,0.114l-0.116,0.112l-0.115,0.113l-0.116,0.115l-0.114,0.115l-0.115,0.117l-0.112,0.115l-0.113,0.118l-0.111,0.117l-0.112,0.12l-0.11,0.118l-0.109,0.12l-0.11,0.122l-0.107,0.119l-0.107,0.122l-0.108,0.124l-0.106,0.123l-0.105,0.123l-0.104,0.123l-0.104,0.126l-0.103,0.126l-0.102,0.126l-0.102,0.127l-0.101,0.128l-0.1,0.127l-0.099,0.13l-0.099,0.129l-0.097,0.129l-0.098,0.131l-0.096,0.131l-0.095,0.131l-0.095,0.133l-0.094,0.133l-0.093,0.133l-0.092,0.134l-0.092,0.135l-0.09,0.134l-0.09,0.136l-0.089,0.136l-0.088,0.137l-0.088,0.137l-0.087,0.139l-0.085,0.138l-0.086,0.139l-0.084,0.139l-0.083,0.14l-0.083,0.141l-0.081,0.141l-0.081,0.141l-0.08,0.142l-0.08,0.144l-0.078,0.142l-0.077,0.143l-0.077,0.144l-0.076,0.145l-0.075,0.146l-0.074,0.145l-0.073,0.146l-0.073,0.148l-0.071,0.147l-0.07,0.147l-0.07,0.147l-0.069,0.149l-0.068,0.149l-0.067,0.149l-0.066,0.151l-0.065,0.15l-0.065,0.151l-0.064,0.152l-0.062,0.15l-0.062,0.153l-0.061,0.153l-0.059,0.152l-0.059,0.155l-0.058,0.154l-0.057,0.154l-0.057,0.155l-0.055,0.155l-0.054,0.156l-0.054,0.156l-0.052,0.157l-0.052,0.157l-0.051,0.157l-0.049,0.158l-0.049,0.157l-0.048,0.16l-0.047,0.159l-0.045,0.158l-0.045,0.161l-0.044,0.161l-0.043,0.16l-0.042,0.161l-0.041,0.162l-0.04,0.162l-0.039,0.162l-0.038,0.162l-0.038,0.164l-0.036,0.163l-0.035,0.164l-0.034,0.164l-0.033,0.164l-0.032,0.165l-0.032,0.165l-0.03,0.167l-0.029,0.166l-0.028,0.166l-0.027,0.166l-0.026,0.167l-0.025,0.168l-0.024,0.168l-0.024,0.168l-0.022,0.169l-0.02,0.169l-0.02,0.17l-0.019,0.169l-0.018,0.17l-0.017,0.17l-0.016,0.17l-0.014,0.172l-0.014,0.172l-0.012,0.171l-0.012,0.172l-0.01,0.174l-0.01,0.172l-0.008,0.172l-0.007,0.174l-0.006,0.175l-0.005,0.174l-0.004,0.174l-0.003,0.176l-0.001,0.174l-0.001,0.176l0.001,0.176l0.001,0.174l0.003,0.176l0.004,0.174l0.005,0.174l0.006,0.175l0.007,0.174l0.008,0.172l0.01,0.172l0.01,0.174l0.012,0.172l0.012,0.171l0.014,0.172l0.014,0.172l0.016,0.17l0.017,0.17l0.018,0.17l0.019,0.169l0.02,0.17l0.02,0.169l0.022,0.169l0.024,0.168l0.024,0.168l0.025,0.168l0.026,0.167l0.027,0.166l0.028,0.166l0.029,0.166l0.03,0.167l0.032,0.165l0.032,0.165l0.033,0.164l0.034,0.164l0.035,0.164l0.036,0.163l0.038,0.164l0.038,0.162l0.039,0.162l0.04,0.162l0.041,0.162l0.042,0.161l0.043,0.16l0.044,0.161l0.045,0.161l0.045,0.158l0.047,0.159l0.048,0.16l0.049,0.157l0.049,0.158l0.051,0.157l0.052,0.157l0.052,0.157l0.054,0.156l0.054,0.156l0.055,0.155l0.057,0.155l0.057,0.154l0.058,0.154l0.059,0.155l0.059,0.152l0.061,0.153l0.062,0.153l0.062,0.15l0.064,0.152l0.065,0.151l0.065,0.15l0.066,0.151l0.067,0.149l0.068,0.149l0.069,0.149l0.07,0.147l0.07,0.147l0.071,0.147l0.073,0.148l0.073,0.146l0.074,0.145l0.075,0.146l0.076,0.145l0.077,0.144l0.077,0.143l0.078,0.142l0.08,0.144l0.08,0.142l0.081,0.141l0.081,0.141l0.083,0.141l0.083,0.14l0.084,0.139l0.086,0.139l0.085,0.138l0.087,0.139l0.088,0.137l0.088,0.137l0.089,0.136l0.09,0.136l0.09,0.134l0.092,0.135l0.092,0.134l0.093,0.133l0.094,0.133l0.095,0.133l0.095,0.131l0.096,0.131l0.098,0.131l0.097,0.129l0.099,0.129l0.099,0.13l0.1,0.127l0.101,0.128l0.102,0.127l0.102,0.126l0.103,0.126l0.105,0.126l0.103,0.123l0.104,0.122l0.107,0.124l0.108,0.124l0.107,0.122l0.107,0.119l0.11,0.122l0.109,0.12l0.11,0.118l0.112,0.12l0.111,0.117l0.113,0.118l0.113,0.116l0.114,0.116l0.114,0.115l0.116,0.115l0.116,0.114l0.115,0.111l0.118,0.114l0.118,0.111l0.118,0.111l0.12,0.111l0.119,0.109l0.12,0.109l0.122,0.108l0.122,0.108l0.123,0.107l0.122,0.105l0.124,0.105l0.125,0.106l0.124,0.103l0.126,0.103l0.127,0.103l0.126,0.101l0.127,0.101l0.128,0.099l0.129,0.1l0.13,0.099l0.129,0.097l0.132,0.098l0.131,0.096l0.131,0.095l0.132,0.095l0.132,0.093l0.134,0.094l0.133,0.092l0.135,0.091l0.135,0.091l0.136,0.09l0.136,0.089l0.137,0.089l0.138,0.087l0.137,0.086l0.138,0.086l0.139,0.085l0.14,0.085l0.141,0.084l0.14,0.082l0.14,0.081l0.142,0.081l0.143,0.081l0.142,0.079l0.143,0.078l0.144,0.077l0.144,0.077l0.144,0.075l0.146,0.076l0.146,0.074l0.145,0.073l0.147,0.072l0.147,0.072l0.147,0.07l0.149,0.07l0.148,0.069l0.149,0.068l0.15,0.067l0.15,0.066l0.151,0.066l0.149,0.064l0.152,0.063l0.153,0.063l0.151,0.062l0.153,0.06l0.153,0.061l0.154,0.058l0.153,0.058l0.155,0.057l0.155,0.057l0.155,0.055l0.156,0.055l0.156,0.053l0.156,0.052l0.157,0.052l0.157,0.05l0.159,0.05l0.158,0.049l0.158,0.047l0.16,0.047l0.16,0.046l0.159,0.045l0.161,0.044l0.16,0.043l0.161,0.042l0.161,0.041l0.162,0.04l0.163,0.039l0.163,0.039l0.163,0.037l0.163,0.036l0.163,0.035l0.165,0.034l0.164,0.033l0.166,0.033l0.165,0.031l0.165,0.03l0.166,0.029l0.167,0.028l0.167,0.027l0.167,0.026l0.167,0.025l0.168,0.024l0.168,0.024l0.169,0.021l0.169,0.021l0.169,0.02l0.17,0.019l0.17,0.018l0.17,0.017l0.171,0.016l0.172,0.014l0.17,0.014l0.172,0.012l0.172,0.012l0.173,0.01l0.173,0.01l0.173,0.008l0.173,0.007l0.175,0.006l0.173,0.005l0.175,0.004l0.176,0.003l0.175,0.001l0.175,0.001l0.175,-0.001l0.175,-0.001l0.176,-0.003l0.175,-0.004l0.173,-0.005l0.175,-0.006l0.173,-0.007l0.173,-0.008l0.173,-0.01l0.173,-0.01l0.172,-0.012l0.172,-0.012l0.17,-0.014l0.172,-0.014l0.171,-0.016l0.17,-0.017l0.17,-0.018l0.17,-0.019l0.169,-0.02l0.169,-0.021l0.169,-0.021l0.168,-0.024l0.168,-0.024l0.167,-0.025l0.167,-0.026l0.167,-0.027l0.167,-0.028l0.166,-0.029l0.165,-0.03l0.165,-0.031l0.166,-0.033l0.164,-0.033l0.165,-0.034l0.163,-0.035l0.163,-0.036l0.163,-0.037l0.163,-0.039l0.163,-0.039l0.162,-0.04l0.161,-0.041l0.161,-0.042l0.16,-0.043l0.161,-0.044l0.159,-0.045l0.16,-0.046l0.16,-0.047l0.158,-0.047l0.158,-0.049l0.159,-0.05l0.157,-0.05l0.157,-0.052l0.156,-0.052l0.156,-0.053l0.156,-0.055l0.155,-0.055l0.155,-0.057l0.155,-0.057l0.153,-0.058l0.154,-0.058l0.153,-0.061l0.153,-0.06l0.151,-0.062l0.153,-0.063l0.152,-0.063l0.149,-0.064l0.151,-0.066l0.15,-0.066l0.15,-0.067l0.149,-0.068l0.148,-0.069l0.149,-0.07l0.147,-0.07l0.147,-0.072l0.147,-0.072l0.145,-0.073l0.146,-0.074l0.146,-0.076l0.144,-0.075l0.144,-0.077l0.144,-0.077l0.143,-0.078l0.142,-0.079l0.143,-0.081l0.142,-0.081l0.14,-0.081l0.14,-0.082l0.141,-0.084l0.14,-0.085l0.139,-0.085l0.138,-0.086l0.137,-0.086l0.138,-0.087l0.137,-0.089l0.136,-0.089l0.136,-0.09l0.135,-0.091l0.135,-0.091l0.133,-0.092l0.134,-0.094l0.132,-0.093l0.132,-0.095l0.131,-0.095l0.131,-0.096l0.132,-0.098l0.129,-0.097l0.13,-0.099l0.129,-0.1l0.128,-0.099l0.127,-0.101l0.126,-0.101l0.127,-0.103l0.126,-0.103l0.124,-0.103l0.125,-0.106l0.124,-0.105l0.122,-0.105l0.123,-0.107l0.122,-0.108l0.122,-0.108l0.12,-0.109l0.119,-0.109l0.12,-0.111l0.118,-0.111l0.118,-0.111l0.118,-0.114l0.115,-0.111l0.116,-0.114l0.116,-0.115l0.114,-0.115l0.114,-0.116l0.113,-0.116l0.113,-0.118l0.111,-0.117l0.112,-0.12l0.11,-0.118l0.109,-0.12l0.11,-0.122l0.107,-0.119l0.107,-0.122l0.108,-0.124l0.107,-0.124l0.104,-0.122l0.103,-0.123l0.105,-0.126l0.103,-0.126l0.102,-0.126l0.102,-0.127l0.101,-0.128l0.1,-0.127l0.1,-0.13l0.098,-0.129l0.097,-0.129l0.097,-0.13l0.096,-0.132l0.096,-0.132l0.095,-0.133l0.093,-0.131l0.093,-0.133l0.093,-0.135l0.092,-0.135l0.09,-0.134l0.09,-0.136l0.089,-0.136l0.088,-0.137l0.088,-0.137l0.087,-0.139l0.086,-0.138l0.084,-0.138l0.085,-0.14l0.083,-0.139l0.083,-0.142l0.082,-0.142l0.08,-0.141l0.08,-0.141l0.079,-0.143l0.079,-0.143l0.077,-0.143l0.077,-0.144l0.076,-0.145l0.075,-0.146l0.074,-0.146l0.073,-0.145l0.072,-0.146l0.072,-0.148l0.071,-0.149l0.069,-0.147l0.069,-0.148l0.068,-0.149l0.067,-0.149l0.066,-0.15l0.065,-0.151l0.065,-0.151l0.064,-0.152l0.063,-0.152l0.061,-0.151l0.06,-0.152l0.06,-0.154l0.059,-0.153l0.058,-0.154l0.058,-0.156l0.056,-0.154l0.055,-0.155l0.054,-0.156l0.054,-0.157l0.052,-0.155l0.052,-0.157l0.051,-0.158l0.049,-0.157l0.049,-0.159l0.048,-0.16l0.047,-0.158l0.045,-0.159l0.045,-0.16l0.044,-0.16l0.043,-0.161l0.042,-0.161l0.041,-0.162l0.04,-0.162l0.04,-0.163l0.037,-0.161l0.037,-0.162l0.037,-0.165l0.035,-0.165l0.034,-0.163l0.033,-0.164l0.032,-0.165l0.032,-0.165l0.03,-0.166l0.029,-0.166l0.028,-0.167l0.027,-0.167l0.027,-0.168l0.024,-0.166l0.024,-0.167l0.024,-0.169l0.022,-0.17l0.021,-0.169l0.019,-0.166l0.019,-0.172l0.018,-0.17l0.017,-0.17l0.016,-0.171l0.014,-0.17l0.014,-0.174l0.012,-0.17l0.012,-0.171l0.01,-0.174l0.01,-0.174l0.008,-0.172l0.007,-0.173l0.006,-0.174l0.005,-0.174l0.004,-0.177l0.003,-0.172l0.001,-0.176l0.001,-0.176l-0.001,-0.176l-0.001,-0.176l-0.003,-0.172l-0.004,-0.177l-0.005,-0.174l-0.006,-0.174l-0.007,-0.173l-0.008,-0.172l-0.01,-0.174l-0.01,-0.174l-0.012,-0.171l-0.012,-0.17l-0.014,-0.174l-0.014,-0.17l-0.016,-0.171l-0.017,-0.17l-0.018,-0.17l-0.019,-0.172l-0.019,-0.166l-0.021,-0.169l-0.022,-0.17l-0.024,-0.169l-0.024,-0.167l-0.024,-0.166l-0.027,-0.168l-0.027,-0.167l-0.028,-0.167l-0.029,-0.166l-0.03,-0.166l-0.032,-0.165l-0.032,-0.165l-0.033,-0.164l-0.034,-0.163l-0.035,-0.165l-0.037,-0.165l-0.037,-0.162l-0.037,-0.161l-0.04,-0.163l-0.04,-0.162l-0.041,-0.162l-0.042,-0.161l-0.043,-0.161l-0.044,-0.16l-0.045,-0.16l-0.045,-0.159l-0.047,-0.158l-0.048,-0.16l-0.049,-0.159l-0.049,-0.157l-0.051,-0.158l-0.052,-0.157l-0.052,-0.155l-0.054,-0.157l-0.054,-0.156l-0.055,-0.155l-0.056,-0.154l-0.058,-0.156l-0.058,-0.154l-0.059,-0.153l-0.06,-0.154l-0.06,-0.152l-0.061,-0.151l-0.063,-0.152l-0.064,-0.152l-0.065,-0.151l-0.065,-0.151l-0.066,-0.15l-0.067,-0.149l-0.068,-0.149l-0.069,-0.148l-0.069,-0.147l-0.071,-0.149l-0.072,-0.148l-0.072,-0.146l-0.073,-0.145l-0.074,-0.146l-0.075,-0.146l-0.076,-0.145l-0.077,-0.144l-0.077,-0.143l-0.079,-0.143l-0.079,-0.143l-0.08,-0.141l-0.08,-0.141l-0.082,-0.142l-0.083,-0.142l-0.083,-0.139l-0.085,-0.14l-0.084,-0.138l-0.086,-0.138l-0.087,-0.139l-0.088,-0.137l-0.088,-0.137l-0.089,-0.136l-0.09,-0.136l-0.09,-0.134l-0.092,-0.135l-0.093,-0.135l-0.092,-0.133l-0.094,-0.131l-0.095,-0.133l-0.096,-0.132l-0.096,-0.132l-0.097,-0.13l-0.097,-0.129l-0.098,-0.129l-0.1,-0.13l-0.1,-0.127l-0.101,-0.128l-0.102,-0.127l-0.102,-0.126l-0.103,-0.126l-0.104,-0.126l-0.104,-0.123l-0.105,-0.123l-0.106,-0.123l-0.108,-0.124l-0.107,-0.122l-0.107,-0.119l-0.11,-0.122l-0.109,-0.12l-0.11,-0.118l-0.112,-0.12l-0.111,-0.117l-0.113,-0.118l-0.112,-0.115l-0.115,-0.117l-0.114,-0.115l-0.116,-0.115l-0.115,-0.113l-0.116,-0.112l-0.118,-0.114l-0.118,-0.111l-0.118,-0.111l-0.12,-0.111l-0.119,-0.109l-0.12,-0.109l-0.122,-0.108l-0.122,-0.108l-0.123,-0.107l-0.122,-0.105l-0.124,-0.106l-0.125,-0.105l-0.124,-0.103l-0.126,-0.103l-0.127,-0.103l-0.126,-0.101l-0.127,-0.101l-0.128,-0.099l-0.129,-0.1l-0.13,-0.099l-0.129,-0.097l-0.132,-0.098l-0.131,-0.096l-0.131,-0.095l-0.132,-0.095l-0.132,-0.093l-0.134,-0.093l-0.134,-0.093l-0.135,-0.092l-0.134,-0.09l-0.136,-0.09l-0.136,-0.089l-0.137,-0.088l-0.138,-0.088l-0.137,-0.086l-0.139,-0.086l-0.139,-0.085l-0.139,-0.085l-0.141,-0.083l-0.14,-0.083l-0.14,-0.081l-0.142,-0.081l-0.143,-0.081l-0.142,-0.078l-0.143,-0.079l-0.144,-0.077l-0.144,-0.077l-0.144,-0.076l-0.146,-0.075l-0.146,-0.074l-0.145,-0.073l-0.147,-0.072l-0.147,-0.072l-0.147,-0.07l-0.149,-0.07l-0.148,-0.069l-0.149,-0.068l-0.15,-0.067l-0.15,-0.066l-0.15,-0.066l-0.151,-0.064l-0.151,-0.063l-0.153,-0.063l-0.151,-0.062l-0.152,-0.06l-0.154,-0.061l-0.154,-0.058l-0.153,-0.058l-0.155,-0.058l-0.155,-0.056l-0.155,-0.055l-0.156,-0.054l-0.156,-0.054l-0.156,-0.052l-0.157,-0.052l-0.158,-0.05l-0.158,-0.05l-0.158,-0.049l-0.158,-0.047l-0.16,-0.047l-0.16,-0.046l-0.159,-0.045l-0.16,-0.044l-0.161,-0.043l-0.161,-0.042l-0.161,-0.041l-0.162,-0.04l-0.163,-0.039l-0.162,-0.038l-0.163,-0.038l-0.164,-0.036l-0.163,-0.035l-0.165,-0.034l-0.164,-0.033l-0.165,-0.032l-0.166,-0.032l-0.165,-0.03l-0.166,-0.029l-0.167,-0.028l-0.166,-0.027l-0.167,-0.026l-0.168,-0.025l-0.168,-0.025l-0.168,-0.023l-0.169,-0.021l-0.169,-0.021l-0.169,-0.02l-0.17,-0.019l-0.17,-0.018l-0.17,-0.017l-0.171,-0.016l-0.171,-0.014l-0.172,-0.014l-0.172,-0.012l-0.172,-0.012l-0.172,-0.01l-0.173,-0.01l-0.173,-0.008l-0.174,-0.007l-0.173,-0.006l-0.175,-0.005l-0.174,-0.004l-0.175,-0.003l-0.176,-0.001l-0.175,-0.001l-0.175,0.001Z" style="fill:#fff;fill-opacity:0.71;"/></g></g></svg>