<?xml version="1.0" encoding="UTF-8" standalone="no"?><!DOCTYPE svg PUBLIC "-//W3C//DTD SVG 1.1//EN" "http://www.w3.org/Graphics/SVG/1.1/DTD/svg11.dtd"><svg width="100%" height="100%" viewBox="0 0 256 256" version="1.1" xmlns="http://www.w3.org/2000/svg" xmlns:xlink="http://www.w3.org/1999/xlink" xml:space="preserve" xmlns:serif="http://www.serif.com/" style="fill-rule:evenodd;clip-rule:evenodd;stroke-linejoin:round;stroke-miterlimit:2;"><rect id="Enemy-Foreshadow" serif:id="Enemy Foreshadow" x="0" y="0" width="256" height="256" style="fill:none;"/><clipPath id="_clip1"><rect x="0" y="0" width="256" height="256"/></clipPath><g clip-path="url(#_clip1)"><g><g><path d="M0,256c55.171,-31.528 128.299,-137.684 128,-256c0.299,118.372 79.409,224.304 128,256l-256,0Z" style="fill:#fff;fill-opacity:0.44;"/></g><g><path d="M0,256c27.585,-23.277 64.15,-101.649 64,-189c0.15,87.392 39.705,165.6 64,189l-128,0Z" style="fill:#fff;fill-opacity:0.44;"/></g><g><path d="M128,256c27.585,-23.277 64.15,-101.649 64,-189c0.15,87.392 39.705,165.6 64,189l-128,0Z" style="fill:#fff;fill-opacity:0.44;"/></g><g><path d="M64,256c27.585,-31.528 64.15,-137.684 64,-256c0.15,118.372 39.705,224.304 64,256l-128,0Z" style="fill:#fff;fill-opacity:0.44;"/></g><g><path d="M97,256c13.362,-31.528 31.072,-137.684 31,-256c0.072,118.372 19.232,224.304 31,256l-62,0Z" style="fill:#fff;fill-opacity:0.44;"/></g><g><path d="M97,256c13.362,-31.528 31.072,-137.684 31,-256c0.072,118.372 19.232,224.304 31,256l-62,0Z" style="fill:#fff;fill-opacity:0.44;"/></g></g></g></svg>